<?xml version="1.0" standalone="no"?>
<!DOCTYPE svg PUBLIC "-//W3C//DTD SVG 20010904//EN"
 "http://www.w3.org/TR/2001/REC-SVG-20010904/DTD/svg10.dtd">
<svg version="1.0" xmlns="http://www.w3.org/2000/svg"
 width="512.000000pt" height="512.000000pt" viewBox="0 0 512.000000 512.000000"
 preserveAspectRatio="xMidYMid meet">

<g transform="translate(0.000000,512.000000) scale(0.100000,-0.100000)"
fill="#ffffff" stroke="none">
<path d="M2905 4857 c-26 -6 -57 -28 -91 -62 -42 -42 -54 -61 -64 -107 -22
-96 12 -186 91 -244 47 -35 90 -44 207 -44 96 0 105 2 127 25 16 15 25 36 25
55 0 19 -9 40 -25 55 -22 23 -31 25 -125 25 -94 0 -103 2 -125 25 -30 29 -32
64 -6 96 17 22 28 24 119 27 126 5 193 -13 245 -63 57 -55 71 -90 72 -171 0
-61 -4 -77 -30 -120 -19 -30 -49 -60 -79 -79 l-49 -30 -1020 -5 -1019 -5 -19
-24 c-27 -33 -24 -77 6 -107 l25 -24 1022 2 1023 3 60 24 c84 34 184 134 214
215 89 238 -43 483 -287 535 -65 14 -243 13 -297 -2z"/>
<path d="M4040 4301 c-129 -42 -199 -159 -170 -281 8 -35 25 -65 56 -99 59
-65 106 -81 241 -81 97 0 106 2 128 25 16 15 25 36 25 55 0 19 -9 40 -25 55
-22 23 -31 25 -120 25 -53 0 -105 5 -116 11 -48 25 -44 105 7 128 35 16 192
14 248 -3 67 -20 110 -57 141 -121 53 -108 15 -235 -89 -300 l-49 -30 -1100
-5 c-1084 -5 -1099 -5 -1113 -25 -8 -11 -17 -30 -20 -41 -8 -30 21 -83 49 -89
12 -3 512 -4 1112 -3 l1090 3 60 24 c83 34 183 133 215 216 33 84 34 215 1
297 -33 84 -106 160 -198 205 -73 36 -76 37 -211 40 -75 1 -148 -1 -162 -6z"/>
<path d="M265 4215 c-16 -15 -25 -36 -25 -55 0 -19 9 -40 25 -55 l24 -25 311
0 311 0 24 25 c33 32 33 78 0 110 l-24 25 -311 0 -311 0 -24 -25z"/>
<path d="M265 3655 c-16 -15 -25 -36 -25 -55 0 -19 9 -40 25 -55 l24 -25 791
0 791 0 24 25 c33 32 33 78 0 110 l-24 25 -791 0 -791 0 -24 -25z"/>
<path d="M265 3095 c-16 -15 -25 -36 -25 -55 0 -19 9 -40 25 -55 l24 -25 231
0 231 0 24 25 c33 32 33 78 0 110 l-24 25 -231 0 -231 0 -24 -25z"/>
<path d="M985 3095 c-16 -15 -25 -36 -25 -55 0 -19 9 -40 25 -55 l24 -25 671
0 671 0 24 25 c33 32 33 78 0 110 l-24 25 -671 0 -671 0 -24 -25z"/>
<path d="M2670 3100 c-29 -29 -34 -63 -16 -99 9 -17 18 -32 19 -33 1 -2 425
-5 943 -8 l941 -5 49 -30 c30 -19 60 -49 79 -80 26 -42 30 -58 30 -119 -1 -47
-6 -82 -18 -103 -28 -53 -86 -102 -140 -118 -60 -18 -215 -20 -251 -4 -51 23
-55 103 -7 128 11 6 63 11 116 11 89 0 98 2 120 25 33 32 33 78 0 110 -22 23
-31 25 -127 25 -139 0 -172 -11 -234 -74 -40 -41 -54 -64 -64 -105 -25 -106
23 -210 125 -264 36 -20 55 -22 191 -22 l150 0 76 38 c93 46 166 121 199 205
33 82 32 213 -1 297 -32 83 -132 182 -215 216 l-60 24 -942 3 c-930 2 -943 2
-963 -18z"/>
<path d="M2330 2629 c-127 -13 -341 -57 -465 -96 -563 -179 -1040 -568 -1334
-1090 -175 -311 -291 -743 -291 -1085 0 -60 3 -72 25 -93 l24 -25 2271 0 2271
0 24 25 c22 21 25 33 25 93 0 106 -19 274 -46 412 -117 595 -466 1121 -974
1469 -437 300 -999 443 -1530 390z m150 -309 l0 -159 -32 -5 c-18 -2 -78 -10
-133 -16 -170 -20 -356 -74 -554 -161 -31 -14 -56 -20 -58 -14 -2 6 -37 66
-78 135 -63 108 -71 127 -58 137 27 21 217 100 327 137 160 53 408 100 554
105 l32 1 0 -160z m320 145 c256 -30 505 -102 710 -205 59 -30 61 -32 48 -53
-8 -12 -45 -74 -82 -138 l-67 -117 -100 47 -99 46 7 45 c25 157 -42 249 -172
238 -84 -7 -128 -51 -169 -172 -7 -20 -8 -20 -183 0 l-53 6 0 159 c0 145 2
159 18 159 9 0 73 -7 142 -15z m266 -312 c-2 -10 -48 -277 -102 -593 -53 -316
-99 -577 -101 -579 -2 -3 -27 4 -56 14 -28 11 -79 24 -112 30 -41 8 -60 16
-59 26 3 30 417 1119 426 1119 5 0 7 -8 4 -17z m-1574 -140 c40 -70 74 -130
76 -133 1 -3 -46 -42 -105 -87 -141 -105 -271 -235 -374 -372 l-83 -111 -35
21 c-20 12 -80 47 -133 77 -54 31 -98 61 -98 67 0 17 118 174 205 275 46 52
126 133 180 180 105 92 263 209 282 210 6 0 44 -57 85 -127z m2325 60 c193
-137 384 -331 522 -529 l52 -73 -23 -15 c-13 -8 -75 -44 -138 -80 l-115 -67
-20 27 c-110 149 -151 199 -235 284 -54 53 -134 123 -177 156 -44 32 -92 68
-106 79 l-27 20 77 133 c43 72 82 132 88 132 5 0 52 -30 102 -67z m-1035 -90
l26 -8 -176 -470 -177 -470 -75 -21 c-95 -27 -135 -43 -205 -89 -163 -104
-282 -277 -317 -458 l-13 -67 -482 0 -483 0 6 58 c42 410 191 740 464 1026
247 259 614 450 950 495 47 6 96 13 110 15 40 7 343 -2 372 -11z m529 -161
c278 -141 495 -335 664 -595 140 -216 232 -487 260 -764 l6 -63 -481 0 c-376
0 -481 3 -484 13 -2 6 -10 44 -19 82 -26 110 -90 226 -173 314 l-72 77 84 489
c46 270 84 493 84 498 0 14 18 7 131 -51z m-2493 -587 c56 -33 102 -65 102
-73 0 -7 -14 -40 -31 -73 -69 -137 -140 -400 -154 -569 -11 -133 9 -120 -175
-120 -146 0 -160 2 -160 18 0 49 32 282 50 364 37 167 105 360 174 497 l27 52
32 -18 c18 -11 78 -46 135 -78z m3713 -34 c103 -234 159 -456 184 -728 l7 -73
-161 0 -160 0 -5 32 c-3 18 -8 62 -11 98 -15 162 -66 352 -142 533 -25 59 -44
109 -42 111 2 2 63 38 134 80 114 66 131 73 142 60 6 -9 31 -60 54 -113z
m-1842 -336 c159 -38 298 -149 370 -296 22 -46 44 -103 47 -126 l7 -43 -552 0
c-632 0 -570 -12 -528 103 34 93 68 146 137 215 137 135 333 191 519 147z"/>
</g>
</svg>
