<?xml version="1.0" standalone="no"?>
<!DOCTYPE svg PUBLIC "-//W3C//DTD SVG 20010904//EN"
 "http://www.w3.org/TR/2001/REC-SVG-20010904/DTD/svg10.dtd">
<svg version="1.0" xmlns="http://www.w3.org/2000/svg"
 width="512.000000pt" height="512.000000pt" viewBox="0 0 512.000000 512.000000"
 preserveAspectRatio="xMidYMid meet">

<g transform="translate(0.000000,512.000000) scale(0.100000,-0.100000)"
fill="#ffffff" stroke="none">
<path d="M2690 4866 c-127 -29 -240 -82 -328 -154 l-53 -43 -47 15 c-88 29
-147 37 -257 37 -317 -1 -587 -175 -720 -464 -34 -74 -65 -184 -65 -228 0 -23
-7 -28 -61 -43 -180 -50 -361 -190 -459 -356 -56 -94 -100 -234 -107 -340 l-6
-88 -94 -47 c-166 -84 -309 -241 -375 -413 -96 -247 -70 -509 72 -725 146
-222 368 -347 647 -364 92 -5 103 -8 103 -25 0 -82 85 -358 150 -489 506
-1011 1835 -1232 2629 -438 248 248 407 558 465 910 l6 35 124 11 c265 24 479
145 614 347 190 284 185 632 -13 911 -41 58 -125 144 -174 177 l-24 17 21 58
c36 98 52 184 52 288 0 216 -67 386 -215 544 -115 122 -275 212 -429 240 -136
25 -327 6 -446 -44 l-55 -23 -12 61 c-50 248 -205 453 -428 565 -113 56 -188
74 -330 78 -83 2 -150 -1 -185 -10z m303 -112 c91 -20 216 -80 289 -139 143
-115 247 -325 248 -500 0 -58 21 -95 52 -95 12 0 45 14 75 30 29 17 88 42 130
57 68 24 94 27 203 27 104 1 138 -3 200 -22 305 -95 512 -394 486 -703 -7 -90
-26 -159 -68 -251 -17 -37 -28 -74 -25 -82 3 -8 37 -38 76 -66 126 -91 207
-200 258 -345 25 -72 28 -93 28 -215 0 -121 -3 -143 -27 -211 -39 -112 -92
-195 -173 -275 -124 -121 -299 -194 -465 -194 l-77 0 -6 158 c-9 252 -64 463
-178 681 -232 448 -638 756 -1139 862 -143 31 -454 33 -605 5 -726 -134 -1269
-722 -1345 -1456 -5 -52 -10 -130 -10 -172 l0 -78 -78 0 c-298 0 -568 212
-649 510 -23 87 -23 252 1 340 52 192 189 358 363 440 48 23 99 47 113 54 24
11 25 17 32 121 12 198 75 342 208 475 86 86 194 147 318 179 41 10 78 23 84
29 5 5 14 45 19 87 18 163 77 284 199 406 99 99 199 156 326 184 109 25 263
17 367 -19 89 -30 119 -32 138 -10 29 35 132 107 202 140 132 62 287 80 430
48z m-173 -1388 c626 -111 1107 -580 1242 -1210 29 -136 32 -426 5 -561 -64
-322 -197 -578 -419 -804 -200 -202 -443 -342 -716 -410 -122 -31 -223 -42
-366 -43 -211 0 -379 32 -569 108 -477 192 -815 594 -929 1105 -20 90 -23 131
-23 309 0 224 9 287 67 469 185 580 702 992 1323 1055 74 8 299 -3 385 -18z"/>
<path d="M2420 3165 c-8 -2 -49 -9 -90 -15 -321 -52 -640 -256 -839 -536 -354
-499 -309 -1192 108 -1640 53 -57 86 -68 115 -38 28 28 19 62 -32 117 -54 58
-122 146 -122 158 0 4 39 29 86 56 99 55 119 78 105 116 -18 48 -52 45 -150
-12 -49 -28 -93 -51 -98 -51 -32 0 -116 265 -129 411 l-7 69 99 0 c59 0 109 5
124 13 31 16 39 61 14 88 -15 16 -31 19 -127 19 l-110 0 7 75 c8 92 34 194 75
301 46 119 47 119 102 84 102 -63 146 -82 168 -70 11 6 25 20 31 31 18 32 -9
61 -105 116 -47 26 -85 51 -85 54 0 9 74 105 116 151 57 61 149 144 199 178
l42 29 48 -85 c26 -47 54 -91 62 -99 32 -32 93 -8 93 37 0 11 -23 61 -52 110
-42 73 -49 91 -37 99 34 21 167 72 237 90 79 20 221 40 235 32 4 -2 7 -53 7
-112 0 -92 3 -110 18 -124 24 -22 55 -21 75 1 14 15 17 40 17 131 l0 112 33
-5 c17 -3 55 -8 82 -11 105 -13 302 -75 363 -114 10 -6 3 -26 -33 -87 -64
-108 -69 -122 -50 -150 19 -29 65 -32 87 -6 8 9 35 52 58 95 24 42 48 77 53
77 16 0 98 -61 164 -123 74 -69 195 -216 187 -228 -2 -4 -45 -31 -94 -59 -94
-54 -113 -78 -91 -118 24 -45 54 -37 212 57 l36 21 30 -67 c44 -97 72 -194 88
-303 8 -52 15 -101 15 -107 0 -10 -28 -13 -108 -13 -71 0 -114 -4 -124 -12
-27 -21 -30 -53 -9 -79 18 -22 27 -24 131 -27 l112 -4 -7 -51 c-18 -146 -48
-260 -100 -376 l-27 -59 -93 54 c-52 30 -102 54 -113 54 -37 0 -65 -54 -44
-86 4 -7 49 -36 100 -66 l93 -55 -44 -59 c-24 -33 -65 -83 -90 -112 -52 -58
-54 -67 -31 -100 29 -42 66 -30 131 44 89 101 140 178 204 309 89 183 130 363
130 565 -1 623 -427 1147 -1046 1286 -63 14 -366 29 -405 19z"/>
<path d="M2838 2458 c-17 -18 -96 -103 -175 -189 -116 -127 -150 -158 -177
-163 -111 -21 -202 -172 -176 -294 10 -45 7 -60 -64 -286 -80 -255 -82 -279
-32 -292 13 -3 32 -1 43 4 10 6 90 89 178 185 147 161 165 178 217 197 41 15
69 34 101 70 56 62 72 116 63 214 -6 71 -5 79 64 297 38 122 70 230 70 239 0
23 -32 50 -59 50 -13 0 -36 -14 -53 -32z m-99 -326 c-19 -58 -22 -61 -42 -51
-12 7 -24 13 -26 15 -2 2 16 26 39 54 23 28 44 49 46 47 2 -2 -6 -31 -17 -65z
m-91 -153 c35 -21 66 -94 59 -136 -13 -80 -73 -126 -155 -120 -104 7 -161 108
-116 204 36 74 136 99 212 52z m-213 -341 c14 -6 25 -14 25 -18 0 -3 -21 -26
-46 -50 -32 -31 -45 -39 -41 -25 18 65 31 105 33 105 2 0 15 -5 29 -12z"/>
<path d="M1937 992 c-24 -27 -25 -352 -1 -376 14 -14 84 -16 628 -16 581 0
614 1 629 18 14 16 17 44 17 185 0 154 -2 169 -20 187 -20 20 -33 20 -628 20
-577 0 -610 -1 -625 -18z m363 -187 l0 -95 -135 0 -135 0 0 95 0 95 135 0 135
0 0 -95z m410 0 l0 -95 -145 0 -145 0 0 95 0 95 145 0 145 0 0 -95z m380 0 l0
-95 -135 0 -135 0 0 88 c0 49 3 92 7 95 3 4 64 7 135 7 l128 0 0 -95z"/>
</g>
</svg>
