<?xml version="1.0" standalone="no"?>
<!DOCTYPE svg PUBLIC "-//W3C//DTD SVG 20010904//EN"
 "http://www.w3.org/TR/2001/REC-SVG-20010904/DTD/svg10.dtd">
<svg version="1.0" xmlns="http://www.w3.org/2000/svg"
 width="512.000000pt" height="512.000000pt" viewBox="0 0 512.000000 512.000000"
 preserveAspectRatio="xMidYMid meet">

<g transform="translate(0.000000,512.000000) scale(0.100000,-0.100000)"
fill="#ffffff" stroke="none">
<path d="M3963 3751 c-64 -23 -129 -68 -173 -117 -46 -53 -90 -152 -97 -218
l-6 -56 82 0 c76 0 81 1 81 21 0 78 77 185 155 214 34 14 69 16 162 14 111 -4
122 -6 193 -40 257 -123 352 -411 218 -661 -37 -69 -128 -158 -200 -194 -110
-56 -25 -54 -2080 -54 l-1898 0 0 -80 0 -80 1938 2 1937 3 82 28 c313 106 497
424 427 740 -52 235 -232 420 -469 482 -87 22 -284 20 -352 -4z"/>
<path d="M3150 3611 c-100 -33 -173 -114 -181 -201 l-4 -35 77 -3 77 -3 15 36
c25 60 103 72 193 31 144 -68 150 -267 10 -347 l-42 -24 -967 -3 -968 -2 0
-80 0 -80 953 0 c756 0 964 3 1008 14 110 25 197 98 248 205 22 47 26 70 26
141 0 72 -4 94 -29 147 -35 76 -104 144 -182 180 -59 27 -186 40 -234 24z"/>
<path d="M2320 2180 l0 -80 828 0 c927 0 881 3 967 -72 127 -112 139 -295 27
-419 -61 -68 -109 -91 -204 -97 -42 -2 -88 -2 -102 2 -40 10 -85 54 -97 97
l-12 39 -79 0 -80 0 7 -42 c17 -101 77 -183 167 -227 56 -28 70 -31 159 -31
157 0 271 47 360 149 205 232 133 585 -148 719 l-78 37 -857 3 -858 3 0 -81z"/>
</g>
</svg>
