<?xml version="1.0" encoding="UTF-8"?>
<svg version="1.1" xmlns="http://www.w3.org/2000/svg" width="512" height="512" >
<path d="M0 0 C2.82361981 2.66314807 4.94283924 5.24637462 6.92578125 8.578125 C7.73764893 9.92934448 7.73764893 9.92934448 8.56591797 11.30786133 C9.14229004 12.27876709 9.71866211 13.24967285 10.3125 14.25 C11.57032152 16.34322547 12.82947806 18.43564918 14.08984375 20.52734375 C14.73679199 21.60226074 15.38374023 22.67717773 16.05029297 23.78466797 C19.10732931 28.82613662 22.23905765 33.81986423 25.375 38.8125 C31.30741601 48.27039993 37.17366965 57.76714341 43.01464844 67.28173828 C47.51558364 74.60642501 52.05748977 81.90417288 56.625 89.1875 C62.0626326 97.86046723 67.42077408 106.57774872 72.71557617 115.33862305 C75.74728668 120.34315408 78.82089257 125.31507444 81.96484375 130.25 C100.3588072 159.13072469 111.60064743 189.06436181 104.1015625 223.74609375 C97.48929243 250.74514297 81.7969223 275.06363388 58 290 C57.11054688 290.58394531 56.22109375 291.16789062 55.3046875 291.76953125 C49.63594603 295.31442544 43.89738448 297.99966756 37.625 300.25 C36.97845459 300.48404541 36.33190918 300.71809082 35.66577148 300.95922852 C24.1933713 304.86451805 12.84547419 306.54104737 0.75 306.4375 C-0.51416748 306.42920166 -1.77833496 306.42090332 -3.08081055 306.41235352 C-31.84956116 305.89590179 -56.04140669 293.48156818 -76.5 273.56640625 C-95.866802 253.09004788 -105.75620904 224.79265629 -105.25 196.79296875 C-103.62601303 172.15404137 -94.65530464 151.94698486 -81.4375 131.3828125 C-77.56328206 125.34745079 -73.81200932 119.23835958 -70.0625 113.125 C-68.68891188 110.88795341 -67.31521479 108.65097373 -65.94140625 106.4140625 C-64.94197998 104.78645996 -64.94197998 104.78645996 -63.92236328 103.12597656 C-61.12525235 98.57756301 -58.31369123 94.03816918 -55.5 89.5 C-51.37251697 82.84200351 -47.26081096 76.17455494 -43.16015625 69.5 C-36.7092536 59.00025827 -30.2180138 48.52763169 -23.67358398 38.0859375 C-18.09988774 29.18339311 -12.5936958 20.24010945 -7.1015625 11.28710938 C-6.46347656 10.24748047 -5.82539063 9.20785156 -5.16796875 8.13671875 C-4.60360107 7.21592529 -4.0392334 6.29513184 -3.45776367 5.34643555 C-2.3377472 3.54364233 -1.17728505 1.76592758 0 0 Z M0 59 C-0.43642822 59.72251953 -0.87285645 60.44503906 -1.32250977 61.18945312 C-9.59174458 74.86960854 -17.90428107 88.51708002 -26.40258789 102.05664062 C-31.65271805 110.42583137 -36.83419705 118.83598463 -41.99780273 127.25878906 C-45.34467733 132.71113416 -48.71376363 138.14725559 -52.1328125 143.5546875 C-52.803125 144.616875 -53.4734375 145.6790625 -54.1640625 146.7734375 C-55.42225074 148.76348026 -56.68488748 150.75072144 -57.953125 152.734375 C-63.4417291 161.42261378 -68.64850031 170.32543509 -71.3125 180.3125 C-71.61800781 181.42238281 -71.92351562 182.53226562 -72.23828125 183.67578125 C-77.09275549 204.86120471 -72.017124 224.83922773 -60.93359375 243.12109375 C-50.10993391 259.23632062 -32.96342412 270.4209521 -14.01953125 274.50390625 C5.7978708 277.75980542 24.98041118 274.37290493 41.87109375 263.28515625 C59.01659935 250.76315778 70.56874374 233.94935988 74.52734375 212.7578125 C78.33904205 182.45323596 64.5474181 161.01833464 48.98681641 136.17431641 C46.14056406 131.62688793 43.32073546 127.06327987 40.5 122.5 C39.44533399 120.79816376 38.39064616 119.09634105 37.3359375 117.39453125 C34.26532939 112.43453094 31.21036665 107.46500161 28.15698242 102.49438477 C24.77656003 96.99302452 21.38958822 91.4957167 18 86 C17.65076477 85.43341675 17.30152954 84.8668335 16.94171143 84.28308105 C14.53038974 80.3720164 12.11070269 76.4662197 9.6875 72.5625 C9.05924316 71.54373779 8.43098633 70.52497559 7.78369141 69.4753418 C7.19894043 68.53601807 6.61418945 67.59669434 6.01171875 66.62890625 C5.50084717 65.80463135 4.98997559 64.98035645 4.46362305 64.13110352 C3.11862394 62.172722 1.74098494 60.60683869 0 59 Z " fill="#ffffff" transform="translate(375,206)"/>
<path d="M0 0 C4.52851976 4.07893747 7.34362848 8.55667624 10.375 13.8125 C11.43805633 15.61969576 12.50325457 17.42563285 13.5703125 19.23046875 C14.40804199 20.64851807 14.40804199 20.64851807 15.26269531 22.09521484 C18.18635663 26.98359628 21.21849507 31.80301743 24.25 36.625 C29.58253667 45.12106886 34.87411656 53.64070846 40.125 62.1875 C44.96783374 70.06956908 49.81594941 77.94813995 54.6875 85.8125 C55.21448486 86.66328125 55.74146973 87.5140625 56.28442383 88.390625 C57.85600154 90.92725761 59.427929 93.46367308 61 96 C67.80858872 106.98474995 74.6083755 117.97486623 81.38534546 128.97915649 C82.40475871 130.63433921 83.42466129 132.28922053 84.44458008 133.9440918 C85.70763225 135.99625145 86.96837685 138.04983354 88.2265625 140.10498047 C89.37681473 141.98269123 90.53273396 143.85694676 91.6953125 145.72705078 C105.4266284 168.06586747 109.509423 195.48939254 104.8125 221.1875 C104.2523064 223.46957899 103.64866905 225.74147618 103 228 C102.67128906 229.21171875 102.34257812 230.4234375 102.00390625 231.671875 C93.67584228 259.45129946 74.03386923 281.11686905 48.8203125 294.71484375 C23.60296693 307.07197194 -5.15176929 309.2131663 -32 301 C-37.5184976 299.0594157 -42.78380428 296.63724259 -48 294 C-49.05832031 293.46503906 -50.11664063 292.93007813 -51.20703125 292.37890625 C-76.0843125 278.78280365 -93.04452759 255.17272664 -101.140625 228.36328125 C-101.42421875 227.25339844 -101.7078125 226.14351562 -102 225 C-102.26707764 223.95670532 -102.26707764 223.95670532 -102.53955078 222.89233398 C-104.25536893 215.42875506 -104.38557098 208.07215254 -104.375 200.4375 C-104.37445618 199.77458954 -104.37391235 199.11167908 -104.37335205 198.42868042 C-104.33317408 187.7665712 -103.46097478 178.10346676 -100 168 C-99.78569336 167.36642578 -99.57138672 166.73285156 -99.35058594 166.08007812 C-94.53799518 152.16769786 -86.69753047 139.98986748 -78.83862305 127.65014648 C-74.87376947 121.41896074 -71.01300306 115.13005118 -67.1875 108.8125 C-61.781559 99.89165258 -56.28872423 91.02955188 -50.74682617 82.19262695 C-46.12612491 74.81843296 -41.55282388 67.41626983 -37 60 C-31.83059871 51.57936353 -26.62457255 43.18338459 -21.375 34.8125 C-14.14069408 23.27450751 -7.05022453 11.65119876 0 0 Z M0 60 C-1.80384352 62.59029433 -3.47749507 65.18641388 -5.125 67.875 C-5.64779541 68.71562988 -6.17059082 69.55625977 -6.70922852 70.42236328 C-8.4808644 73.27667986 -10.2409641 76.13790297 -12 79 C-13.29800786 81.10427106 -14.59618951 83.20843493 -15.89453125 85.3125 C-18.62027604 89.73429324 -21.34100985 94.15912445 -24.05859375 98.5859375 C-27.52571853 104.23227807 -31.00871365 109.86857639 -34.5 115.5 C-41.43652376 126.69586904 -48.35129733 137.90480137 -55.23486328 149.13330078 C-56.75745594 151.60609235 -58.29412087 154.06898361 -59.83984375 156.52734375 C-64.53871397 164.05997686 -68.24988414 171.54078286 -71 180 C-71.23332031 180.70253906 -71.46664062 181.40507812 -71.70703125 182.12890625 C-76.90878097 200.05436033 -73.08370776 219.28813289 -64.8125 235.5625 C-54.6009702 253.70910392 -38.5191903 266.5913884 -18.5625 272.4375 C1.99157685 277.22846068 20.76767832 274.66113469 39.125 264.1875 C57.23834093 252.72922044 69.29175259 236.20247408 74.33984375 215.1796875 C79.69985488 185.50124094 66.37687533 163.43443848 51.06005859 139.26904297 C47.62050699 133.8109254 44.24861651 128.31152748 40.875 122.8125 C39.53272287 120.62749924 38.19027716 118.44260204 36.84765625 116.2578125 C36.20070801 115.2049707 35.55375977 114.15212891 34.88720703 113.06738281 C30.47863135 105.90187895 26.04383997 98.75257648 21.61181641 91.6015625 C19.90035488 88.83916716 18.19025049 86.07593533 16.48046875 83.3125 C15.8980542 82.37124268 15.31563965 81.42998535 14.71557617 80.46020508 C13.61016663 78.67364805 12.5048532 76.88703155 11.3996582 75.1003418 C10.40661685 73.49573327 9.41152046 71.89239415 8.4140625 70.29052734 C7.45793195 68.74176753 6.51552865 67.18446208 5.5859375 65.61962891 C5.14507812 64.88534668 4.70421875 64.15106445 4.25 63.39453125 C3.66992188 62.41190308 3.66992188 62.41190308 3.078125 61.40942383 C2.72234375 60.94431396 2.3665625 60.4792041 2 60 C1.34 60 0.68 60 0 60 Z " fill="#ffffff" transform="translate(135,146)"/>
<path d="M0 0 C0.66 0 1.32 0 2 0 C3.3507605 1.97933221 4.5618917 3.94220556 5.75390625 6.015625 C6.12641006 6.64952148 6.49891388 7.28341797 6.88270569 7.93652344 C7.69096342 9.31360373 8.49589144 10.69264243 9.2979126 12.07336426 C11.00662761 15.01444225 12.7314582 17.94594012 14.45581055 20.87786865 C15.34183194 22.38445694 16.22707746 23.89150178 17.11157227 25.39898682 C21.2166236 32.39001249 25.40627314 39.32713919 29.625 46.25 C30.32143426 47.39432965 31.01780458 48.53869822 31.71411133 49.68310547 C33.45450031 52.54251369 35.19644348 55.40097172 36.93884277 58.25915527 C42.30937165 67.06959038 47.67189598 75.88478164 53.01171875 84.71386719 C54.31435609 86.86680169 55.61897152 89.01854086 56.92578125 91.16894531 C70.07486693 112.8372544 70.07486693 112.8372544 73 122 C73.31324219 122.94617188 73.62648438 123.89234375 73.94921875 124.8671875 C79.47250332 144.51108646 76.34215916 165.11744906 66.84375 182.88671875 C56.36482864 200.58099909 40.0561691 213.08560942 20.3125 218.75 C0.1465549 223.78437558 -20.83876733 221.00603137 -38.7421875 210.37109375 C-57.44254594 197.81680327 -68.969958 180.93730361 -74 159 C-74.55221884 155.98831908 -74.86413355 153.05699509 -75 150 C-75.0515625 149.28328125 -75.103125 148.5665625 -75.15625 147.828125 C-76.13160492 123.60681119 -63.80511607 104.56427041 -51.56314087 84.79621887 C-47.52130118 78.25489868 -43.60360183 71.64182094 -39.69372559 65.02105713 C-31.19940021 50.63959705 -22.57858256 36.33860946 -13.87890625 22.08056641 C-12.09340814 19.15314759 -10.31173594 16.22343793 -8.53125 13.29296875 C-7.52096998 11.63272934 -6.51056357 9.97256683 -5.5 8.3125 C-5.04882812 7.5695166 -4.59765625 6.8265332 -4.1328125 6.06103516 C-1.1149338 1.1149338 -1.1149338 1.1149338 0 0 Z M0 60 C-8.71285723 74.2730692 -17.38622154 88.57016243 -25.95272827 102.93164062 C-26.76555609 104.29320406 -27.57982954 105.65390569 -28.3956604 107.01367188 C-42.72406389 130.74531324 -42.72406389 130.74531324 -42.31640625 157.88671875 C-38.46033828 169.90051272 -30.78389194 178.64065343 -20 185 C-14.87301308 187.5376741 -9.73497644 189.5220853 -4 190 C-3.29746094 190.06316406 -2.59492188 190.12632812 -1.87109375 190.19140625 C10.24324148 190.79420624 21.65757808 185.95291977 30.9609375 178.41015625 C39.22939314 170.7374627 44.40712869 160.61674949 45.28125 149.38671875 C45.83436075 126.45566894 30.80152116 108.21987625 19.28178406 89.38206482 C16.7900686 85.30416438 14.31966738 81.21412971 11.859375 77.1171875 C11.21766357 76.05185791 10.57595215 74.98652832 9.91479492 73.88891602 C8.70285471 71.87604418 7.49453432 69.8609873 6.2902832 67.84350586 C5.75234131 66.95284424 5.21439941 66.06218262 4.66015625 65.14453125 C3.95838257 63.97434448 3.95838257 63.97434448 3.24243164 62.78051758 C2.11039174 60.85620139 2.11039174 60.85620139 0 60 Z " fill="#ffffff" transform="translate(285,0)"/>
</svg>
