<?xml version="1.0" standalone="no"?>
<!DOCTYPE svg PUBLIC "-//W3C//DTD SVG 20010904//EN"
 "http://www.w3.org/TR/2001/REC-SVG-20010904/DTD/svg10.dtd">
<svg version="1.0" xmlns="http://www.w3.org/2000/svg"
 width="512.000000pt" height="512.000000pt" viewBox="0 0 512.000000 512.000000"
 preserveAspectRatio="xMidYMid meet">

<g transform="translate(0.000000,512.000000) scale(0.100000,-0.100000)"
fill="#ffffff" stroke="none">
<path d="M2335 4945 c-292 -41 -560 -147 -795 -313 -122 -86 -326 -290 -412
-412 -256 -362 -361 -779 -317 -1260 64 -707 375 -1396 930 -2060 191 -229
574 -604 718 -702 52 -37 113 -46 161 -25 95 41 559 485 764 732 611 735 936
1528 936 2285 0 366 -116 731 -328 1030 -86 122 -290 327 -412 413 -200 141
-482 260 -720 302 -131 23 -399 28 -525 10z m400 -316 c387 -47 738 -251 976
-568 127 -169 213 -360 261 -579 29 -131 31 -449 5 -622 -103 -665 -418 -1285
-963 -1891 -109 -122 -300 -310 -397 -393 l-57 -48 -57 48 c-102 87 -287 271
-398 394 -539 599 -867 1242 -960 1882 -22 150 -30 395 -16 508 41 332 179
618 411 851 317 320 753 472 1195 418z"/>
<path d="M2393 4145 c-201 -36 -365 -124 -513 -274 -129 -130 -212 -278 -257
-457 -24 -95 -24 -333 0 -428 45 -178 125 -322 252 -451 100 -102 144 -135
261 -193 241 -121 522 -134 773 -36 242 96 449 303 545 545 48 123 60 193 60
349 0 201 -32 321 -133 495 -63 109 -217 263 -329 328 -201 118 -440 162 -659
122z m302 -320 c302 -63 520 -349 502 -660 -10 -167 -70 -298 -193 -420 -305
-305 -819 -219 -1014 170 -93 184 -93 387 0 571 132 261 418 399 705 339z"/>
</g>
</svg>
