<?xml version="1.0" encoding="UTF-8"?>
<svg version="1.1" xmlns="http://www.w3.org/2000/svg" width="512" height="512">
<path d="M0 0 C1.2075293 0.29003906 1.2075293 0.29003906 2.43945312 0.5859375 C29.05969197 7.12494992 53.87828609 18.41597736 75 36 C75.84788086 36.68980957 75.84788086 36.68980957 76.71289062 37.39355469 C95.67759634 52.83504881 110.832035 71.21038626 122 93 C122.51771973 93.99870117 122.51771973 93.99870117 123.04589844 95.01757812 C134.2971439 116.97071247 141.98695663 141.77687537 142.23828125 166.58203125 C142.2480751 167.38549988 142.25786896 168.18896851 142.26795959 169.01678467 C142.97249925 241.94343439 113.58242899 303.36681389 66.546875 358.01953125 C64.14605739 360.82907701 61.81648336 363.68332476 59.5 366.5625 C55.85613353 371.04575714 52.01868304 375.29302453 48.0859375 379.51977539 C44.30145787 383.61015831 40.79659312 387.88733346 37.3046875 392.23046875 C34.84316987 395.18846198 32.25398969 398.0049531 29.625 400.8125 C24.20294584 406.63748092 19.2976745 412.78411771 14.46533203 419.10205078 C12.94363776 421.07300234 11.39435412 423.01969585 9.83984375 424.96484375 C-4.67914183 443.28905965 -18.85869791 464.3054393 -21.48046875 488.09375 C-21.5587793 488.80289551 -21.63708984 489.51204102 -21.71777344 490.24267578 C-21.92684162 492.27156633 -22.10298616 494.30376974 -22.27734375 496.3359375 C-23.29248667 501.48298648 -25.23682078 504.63056852 -29.37890625 507.84765625 C-34.12829103 509.93568681 -38.92248151 509.61920957 -44 509 C-48.61642895 506.8132705 -50.80569584 504.55004215 -53 500 C-53.67282838 496.73245782 -54.01064865 493.43911622 -54.375 490.125 C-58.76001195 456.15429492 -80.95445245 429.85865997 -102.57763672 404.66064453 C-104.04817 402.94376033 -105.51096923 401.22051318 -106.97265625 399.49609375 C-112.21614794 393.3247379 -117.5497826 387.26895634 -123.05981445 381.33447266 C-126.85477675 377.22091243 -130.38670777 372.92870557 -133.89453125 368.5703125 C-135.82745843 366.21063516 -137.82296619 363.94348849 -139.875 361.6875 C-144.74632932 356.26524653 -149.18119496 350.51587849 -153.63720703 344.75244141 C-154.89000802 343.14144078 -156.16096419 341.54460188 -157.43359375 339.94921875 C-190.7154476 297.81406387 -217.68669583 243.97426536 -218.23828125 189.21484375 C-218.2480751 188.40445145 -218.25786896 187.59405914 -218.26795959 186.7591095 C-218.43981096 168.85266758 -218.33606843 151.49047068 -214 134 C-213.68651611 132.71222656 -213.68651611 132.71222656 -213.36669922 131.3984375 C-201.86571654 85.7735654 -171.0341457 45.52189735 -130.7734375 21.42578125 C-115.1678401 12.36970116 -98.58628721 5.15722744 -81 1 C-80.18660156 0.80390137 -79.37320313 0.60780273 -78.53515625 0.40576172 C-54.06244479 -5.22020184 -24.5043462 -6.14277888 0 0 Z M-102.5546875 114.43359375 C-121.0485926 133.91938649 -127.95242331 157.47333529 -127.34765625 183.91796875 C-126.37077078 206.56140354 -115.14239062 227.41511738 -99 243 C-80.4054641 259.4364656 -56.83664903 268.03639375 -31.9375 266.875 C-7.59293343 264.47128849 14.82691076 253.48331152 30.75 234.6875 C47.75694858 212.72916133 54.02219902 189.11718608 50.6953125 161.46777344 C49.8963375 156.82271214 48.58011166 152.44498701 47 148 C46.36384766 146.20755859 46.36384766 146.20755859 45.71484375 144.37890625 C36.60233246 121.20419091 18.54712006 103.68307376 -4.05078125 93.8046875 C-38.45137205 79.6032412 -76.21415275 89.34161646 -102.5546875 114.43359375 Z " fill="#00A66C" transform="translate(294,3)"/>
<path d="M0 0 C4.52961706 0.68865249 6.95830724 3.52203287 10.06958008 6.6496582 C10.66673828 7.23834686 11.26389648 7.82703552 11.87915039 8.43356323 C13.85050383 10.38151848 15.81045904 12.34048021 17.76953125 14.30078125 C19.13354968 15.65770152 20.49786752 17.01432088 21.86247253 18.37065125 C24.71976911 21.2144977 27.57105147 24.06421985 30.41870117 26.91772461 C34.07517391 30.58010376 37.74958922 34.22387935 41.42914295 37.86304951 C44.25067015 40.65878016 47.06070122 43.4658459 49.86752892 46.27632713 C51.21803252 47.62513297 52.57254323 48.96993864 53.93103981 50.31069374 C55.82525604 52.18287308 57.70303619 54.07012526 59.57739258 55.9621582 C60.14509872 56.5166011 60.71280487 57.07104401 61.29771423 57.64228821 C62.83137512 59.20991516 62.83137512 59.20991516 65 62 C64.93364278 66.09214169 61.95151588 68.73234696 59.4375 71.75 C43.47648676 91.77742191 39.52626443 114.89027659 41 140 C43.66473663 162.20613857 56.63884406 183.27977729 74 197.0625 C94.91628527 212.98715451 119.33327852 217.37714317 145 215 C143.50797951 218.47134577 141.53039034 220.72091513 138.86940002 223.38456726 C138.00432831 224.25527863 137.13925659 225.12598999 136.24797058 226.02308655 C135.28724017 226.97992858 134.326406 227.93666643 133.36547852 228.89331055 C132.35487033 229.90662942 131.34468798 230.92037315 130.3348999 231.93450928 C127.59370865 234.68481632 124.84623087 237.42876167 122.0973103 240.1713407 C119.22227437 243.04131387 116.35212047 245.91616263 113.48118591 248.79023743 C108.66024016 253.61482142 103.8350933 258.43517367 99.00756836 263.25317383 C93.42339422 268.82645754 87.84646998 274.4069181 82.27324539 279.9911496 C77.48961447 284.78385007 72.702105 289.57264997 67.9113192 294.35819846 C65.04921407 297.21718285 62.18848384 300.07750776 59.3312397 302.94135094 C56.64601952 305.63233931 53.95597148 308.31840536 51.26208496 311.00071716 C50.2731011 311.98705189 49.28582382 312.97510111 48.30036736 313.9649601 C46.95739079 315.31338313 45.6076655 316.65507475 44.25758362 317.99638367 C43.50338922 318.74982402 42.74919481 319.50326437 41.97214603 320.27953625 C40 322 40 322 37 323 C31.50351147 317.07550622 26.15911892 311.12153575 21.171875 304.7578125 C19.57703096 302.73270478 17.96574205 300.73204235 16.328125 298.7421875 C-13.28361313 262.60270178 -36.57350006 221.15036874 -46.75 175.3125 C-46.94875732 174.42328857 -47.14751465 173.53407715 -47.35229492 172.61791992 C-50.46160931 157.92164484 -51.41022329 143.47380997 -51.375 128.5 C-51.37445618 127.62492798 -51.37391235 126.74985596 -51.37335205 125.8482666 C-51.33273694 111.58489065 -50.44528646 97.89730875 -47 84 C-46.79101074 83.14148438 -46.58202148 82.28296875 -46.36669922 81.3984375 C-38.68469389 50.92360587 -22.23577857 22.23577857 0 0 Z " fill="#FED92D" transform="translate(127,53)"/>
<path d="M0 0 C1.2075293 0.29003906 1.2075293 0.29003906 2.43945312 0.5859375 C29.05969197 7.12494992 53.87828609 18.41597736 75 36 C75.84788086 36.68980957 75.84788086 36.68980957 76.71289062 37.39355469 C99.69198779 56.1036575 124.23972918 84.26460586 131 114 C130.50971565 114.41941392 130.0194313 114.83882784 129.51428986 115.27095127 C124.64724695 119.47583403 120.01669146 123.84448885 115.48242188 128.40405273 C114.77899658 129.107332 114.07557129 129.81061127 113.35083008 130.53520203 C111.05442155 132.83230046 108.7615634 135.13290738 106.46875 137.43359375 C104.86614533 139.03806588 103.26331796 140.6423156 101.66027832 142.24635315 C97.4627034 146.44772743 93.26814159 150.65209724 89.07421875 154.8571167 C84.78568424 159.15592108 80.4942812 163.45185979 76.203125 167.74804688 C67.79928735 176.16257628 59.39863286 184.58027586 51 193 C49.95431932 189.86295796 49.9393483 187.86225767 50.04296875 184.58203125 C50.33254221 171.70655946 50.34413839 160.22042668 46 148 C45.57589844 146.80503906 45.15179688 145.61007813 44.71484375 144.37890625 C35.73818731 121.54969364 18.22408265 104.54186205 -4.05078125 94.8046875 C-26.5747793 85.50620334 -50.85622842 86.51010635 -73.3125 95.3125 C-83.72493988 99.94181449 -92.37444498 106.64241825 -101 114 C-122.66666667 92.33333333 -144.33333333 70.66666667 -166 49 C-142.0533551 25.86099911 -113.53290353 8.89284996 -81 1 C-79.71174316 0.68458252 -79.71174316 0.68458252 -78.39746094 0.36279297 C-54.0254908 -5.2977069 -24.40310962 -6.11740078 0 0 Z " fill="#4086F4" transform="translate(294,3)"/>
<path d="M0 0 C4.52961706 0.68865249 6.95830724 3.52203287 10.06958008 6.6496582 C10.66673828 7.23834686 11.26389648 7.82703552 11.87915039 8.43356323 C13.85050383 10.38151848 15.81045904 12.34048021 17.76953125 14.30078125 C19.13354968 15.65770152 20.49786752 17.01432088 21.86247253 18.37065125 C24.71976911 21.2144977 27.57105147 24.06421985 30.41870117 26.91772461 C34.07517391 30.58010376 37.74958922 34.22387935 41.42914295 37.86304951 C44.25067015 40.65878016 47.06070122 43.4658459 49.86752892 46.27632713 C51.21803252 47.62513297 52.57254323 48.96993864 53.93103981 50.31069374 C55.82525604 52.18287308 57.70303619 54.07012526 59.57739258 55.9621582 C60.14509872 56.5166011 60.71280487 57.07104401 61.29771423 57.64228821 C62.83137512 59.20991516 62.83137512 59.20991516 65 62 C64.93364086 66.09226004 61.95136908 68.73215274 59.4375 71.75 C50.90487141 82.46678518 45.74709805 94.09950517 42.59375 107.37890625 C41.03004125 110.93174452 40.24242522 111.89535874 37.38171387 114.25209045 C33.14574868 117.84279568 29.21321076 121.65204333 25.29882812 125.58764648 C24.57589569 126.31043289 23.85296326 127.0332193 23.10812378 127.77790833 C20.7467844 130.13993791 18.38899535 132.50547713 16.03125 134.87109375 C14.38380478 136.52040633 12.73613694 138.16949657 11.08825684 139.81837463 C6.77231493 144.13811672 2.45938583 148.46085453 -1.85290527 152.78424072 C-6.26208686 157.20369041 -10.67413536 161.62027598 -15.0859375 166.03710938 C-23.72675349 174.68861856 -32.36438671 183.34329788 -41 192 C-43 191 -43 191 -43.63842773 189.30786133 C-43.81833252 188.5733374 -43.9982373 187.83881348 -44.18359375 187.08203125 C-44.38766846 186.25276123 -44.59174316 185.42349121 -44.80200195 184.5690918 C-45.91931652 179.7225306 -46.99503806 174.87120575 -48 170 C-48.17241211 169.17338867 -48.34482422 168.34677734 -48.52246094 167.49511719 C-53.75572491 141.00239834 -53.49188254 110.18641356 -47 84 C-46.79101074 83.14148438 -46.58202148 82.28296875 -46.36669922 81.3984375 C-38.68469389 50.92360587 -22.23577857 22.23577857 0 0 Z " fill="#EF3800" transform="translate(127,53)"/>
<path d="M0 0 C0 74.58 0 149.16 0 226 C-6.21029673 226 -7.44462468 225.74553082 -12 222 C-15.57047199 217.44699026 -15.76387825 212.68372366 -16.375 207.125 C-20.76001195 173.15429492 -42.95445245 146.85865997 -64.57763672 121.66064453 C-66.04817 119.94376033 -67.51096923 118.22051318 -68.97265625 116.49609375 C-74.94188785 109.46256351 -74.94188785 109.46256351 -81.1328125 102.625 C-81.88691406 101.81881226 -81.88691406 101.81881226 -82.65625 100.99633789 C-84.0369301 99.5309718 -85.42827348 98.07567365 -86.8203125 96.62109375 C-88.91177385 94.10609274 -90.00517183 92.09067404 -91 89 C-90.52018142 88.59123595 -90.04036283 88.1824719 -89.5460043 87.76132107 C-84.33694789 83.27072976 -79.42505748 78.55670141 -74.58032227 73.67797852 C-73.78096756 72.87716354 -72.98161285 72.07634857 -72.15803528 71.25126648 C-70.43712175 69.52657059 -68.71736359 67.80072123 -66.99865913 66.07382393 C-64.28233173 63.34467084 -61.5628379 60.61870866 -58.84251404 57.89353943 C-53.07969238 52.11933199 -47.3208095 46.34120666 -41.5625 40.5625 C-34.86493456 33.84128259 -28.16569444 27.12175335 -21.46229362 20.4063549 C-18.77625486 17.713809 -16.09323053 15.01828326 -13.41029358 12.32264709 C-11.77831424 10.68703845 -10.14619615 9.05156823 -8.51391602 7.41625977 C-7.38802063 6.2826149 -7.38802063 6.2826149 -6.23937988 5.12606812 C-5.21971886 4.10630135 -5.21971886 4.10630135 -4.17945862 3.06593323 C-3.58607476 2.47032876 -2.99269091 1.87472429 -2.38132572 1.26107121 C-1 0 -1 0 0 0 Z " fill="#59C369" transform="translate(256,286)"/>
<path d="M0 0 C20.38314313 0 44.25228688 1.114265 63 11 C61.37582304 15.08517606 58.45036838 17.83131698 55.38867188 20.87011719 C54.81613174 21.44616196 54.24359161 22.02220673 53.65370178 22.6157074 C51.7637119 24.5144858 49.86651702 26.40587191 47.96875 28.296875 C46.65331212 29.61365998 45.33817127 30.93074174 44.02331543 32.24810791 C41.26927355 35.00509684 38.51164986 37.75843909 35.75146484 40.50927734 C32.20690886 44.04241671 28.67143598 47.58448786 25.13857269 51.12931442 C22.4262292 53.84886867 19.70916037 56.56366141 16.99061584 59.27701569 C15.68454488 60.58174914 14.37996717 61.8879791 13.07688904 63.1957016 C11.25981842 65.01782695 9.43650292 66.83345842 7.61132812 68.64746094 C7.06996719 69.19287033 6.52860626 69.73827972 5.97084045 70.30021667 C2.22853132 74 2.22853132 74 0 74 C0 49.58 0 25.16 0 0 Z " fill="#4075DF" transform="translate(256,0)"/>
<path d="M0 0 C-1.31714458 2.91537501 -2.73658126 4.9847013 -5.00390625 7.234375 C-5.57947266 7.80800781 -6.15503906 8.38164062 -6.74804688 8.97265625 C-7.34681641 9.55917969 -7.94558594 10.14570313 -8.5625 10.75 C-9.16513672 11.35199219 -9.76777344 11.95398438 -10.38867188 12.57421875 C-14.85961416 17 -14.85961416 17 -16 17 C-16.02685095 14.52076199 -16.04676547 12.0418116 -16.0625 9.5625 C-16.07506836 8.50192383 -16.07506836 8.50192383 -16.08789062 7.41992188 C-16.09653588 5.61306441 -16.05220011 3.80612397 -16 2 C-14.21437648 0.21437648 -11.54672436 0.62043601 -9.125 0.4375 C-7.52011719 0.31181641 -7.52011719 0.31181641 -5.8828125 0.18359375 C-3.9248868 0.05890201 -1.96189222 0 0 0 Z " fill="#F3BF07" transform="translate(272,268)"/>
<path d="M0 0 C0.02685412 2.31243792 0.04632841 4.6249627 0.0625 6.9375 C0.07410156 8.22527344 0.08570313 9.51304688 0.09765625 10.83984375 C0 14 0 14 -1 15 C-3.52596259 15.23653523 -6.03107207 15.42173692 -8.5625 15.5625 C-9.27341797 15.60568359 -9.98433594 15.64886719 -10.71679688 15.69335938 C-12.47761912 15.79971777 -14.2387832 15.90038846 -16 16 C-2.72340426 0 -2.72340426 0 0 0 Z " fill="#80AEF8" transform="translate(256,76)"/>
</svg>
