<?xml version="1.0" encoding="UTF-8"?>
<svg version="1.1" xmlns="http://www.w3.org/2000/svg" width="512" height="512">
<path d="M0 0 C0.82757813 0.69480469 1.65515625 1.38960937 2.5078125 2.10546875 C21.98396501 18.86472851 35.49045666 41.32691177 43.375 65.625 C43.7148291 66.65995605 43.7148291 66.65995605 44.06152344 67.71582031 C46.46947656 75.63490824 47.64383986 83.85012332 49 92 C49.97266563 92.00546844 49.97266563 92.00546844 50.96498108 92.01104736 C57.73018901 92.05294338 64.49472301 92.12233936 71.25952148 92.20751953 C73.78223929 92.23569908 76.30504489 92.25692854 78.82788086 92.27099609 C82.45992891 92.29246633 86.09092466 92.3391411 89.72265625 92.390625 C91.40742821 92.39246796 91.40742821 92.39246796 93.12623596 92.39434814 C101.06766244 92.54199881 105.7469641 93.66355293 111.4375 99.5 C113.74580705 104.6706078 113.75788897 109.42683665 113 115 C110.84829659 119.46279226 108.09499214 122.2358803 104 125 C100.49743766 126.1980969 97.11535939 126.12753975 93.43658733 126.13142776 C92.77560339 126.1334804 92.11461946 126.13553303 91.4336057 126.13764787 C89.20911105 126.14332186 86.98467824 126.14186013 84.76017761 126.14044189 C83.15304137 126.1430253 81.54590577 126.14603839 79.93877107 126.1494453 C75.51470576 126.15752138 71.09065666 126.1593052 66.66658485 126.16004276 C61.8982378 126.16189224 57.12989919 126.169439 52.36155701 126.17617798 C41.93190557 126.1897657 31.50225798 126.19578658 21.07259917 126.20018864 C14.56242462 126.20295007 8.05225156 126.20718722 1.54207802 126.21169281 C-16.47691282 126.22388558 -34.49590247 126.23418519 -52.51489735 126.2375679 C-54.2450978 126.23789725 -54.2450978 126.23789725 -56.0102518 126.23823325 C-57.1665009 126.23845153 -58.32275 126.23866981 -59.51403695 126.2388947 C-61.8570956 126.23933817 -64.20015425 126.23978473 -66.54321289 126.24023438 C-68.28657526 126.24056652 -68.28657526 126.24056652 -70.06515708 126.24090537 C-88.90364978 126.2448546 -107.74210382 126.26231237 -126.58058158 126.2855939 C-145.91412572 126.30929475 -165.24765046 126.32176916 -184.58120936 126.32293582 C-195.4394079 126.32385324 -206.29755606 126.32962257 -217.15574074 126.34775543 C-226.40043293 126.36313926 -235.64505917 126.36828701 -244.88976172 126.36001733 C-249.60755219 126.35610486 -254.3252098 126.35706953 -259.04298401 126.37107468 C-263.36153885 126.38377764 -267.67986049 126.38264789 -271.99841484 126.37048396 C-273.56099581 126.36852071 -275.1235931 126.37163431 -276.68615112 126.38032833 C-278.81073829 126.39140138 -280.93449959 126.38394676 -283.05906391 126.3719368 C-284.82891556 126.37283243 -284.82891556 126.37283243 -286.63452178 126.37374616 C-291.19825094 125.86693074 -295.22796599 124.56145598 -298.7421875 121.46484375 C-303.35940917 115.23955522 -303.86981714 110.72951144 -303 103 C-301.38393921 99.0016427 -299.21713066 96.80787048 -295.65625 94.44433594 C-290.3873456 92.36294982 -285.43867573 92.52009863 -279.8203125 92.48828125 C-278.6524118 92.47033005 -277.48451111 92.45237885 -276.28121948 92.43388367 C-272.56251603 92.37983772 -268.84394054 92.34590222 -265.125 92.3125 C-262.59894055 92.279322 -260.07289797 92.2448319 -257.546875 92.20898438 C-251.36469808 92.12411431 -245.18250449 92.05574005 -239 92 C-238.84278976 91.12530563 -238.84278976 91.12530563 -238.68240356 90.23294067 C-238.19310899 87.53169428 -237.69425562 84.83229271 -237.1953125 82.1328125 C-236.94841675 80.75766479 -236.94841675 80.75766479 -236.6965332 79.35473633 C-232.28540342 55.67228775 -221.32729804 34.43611355 -206 16 C-205.27707764 15.13036621 -205.27707764 15.13036621 -204.53955078 14.24316406 C-183.51630642 -10.60313557 -154.54571335 -26.13744952 -123 -33 C-121.90429688 -33.24621094 -120.80859375 -33.49242187 -119.6796875 -33.74609375 C-77.03837559 -41.4942018 -32.31976872 -28.34272553 0 0 Z " fill="#FEA200" transform="translate(351,232)"/>
<path d="M0 0 C1.08641252 -0.00538554 2.17282503 -0.01077108 3.29215914 -0.01631981 C6.93329632 -0.03062964 10.57407151 -0.02348799 14.21522522 -0.01637268 C16.82541191 -0.02207463 19.43559611 -0.02903821 22.04577637 -0.03717041 C28.40008571 -0.0543578 34.75429617 -0.05519858 41.10862272 -0.04995751 C46.27385726 -0.04591452 51.43906259 -0.04736089 56.60429573 -0.05270576 C57.70741387 -0.0538284 57.70741387 -0.0538284 58.83281722 -0.05497371 C60.3268499 -0.0565052 61.82088258 -0.05804355 63.31491525 -0.05958868 C77.32247422 -0.07331346 91.32997733 -0.06787615 105.33753503 -0.05640347 C118.14913562 -0.04647071 130.9605918 -0.05941248 143.77217012 -0.08333766 C156.93140331 -0.10772668 170.09056924 -0.11733705 183.24982458 -0.11068493 C190.63604371 -0.10719231 198.02215177 -0.10942755 205.40835381 -0.12693596 C212.35313548 -0.14319401 219.29763673 -0.13847936 226.24241066 -0.11963081 C228.79215313 -0.11593749 231.34191594 -0.1190749 233.89163971 -0.1295166 C237.37054433 -0.14267651 240.84852784 -0.13122199 244.32739258 -0.11352539 C245.33790222 -0.1231304 246.34841185 -0.1327354 247.389543 -0.14263147 C253.54983488 -0.0780952 257.18660228 0.78267127 262.22718811 4.38768005 C265.91351695 8.16853014 266.53080191 11.26896874 266.72718811 16.38768005 C266.5434899 21.50589235 265.79715398 24.52825749 262.22718811 28.38768005 C257.80505846 32.47814998 254.57350717 33.50978848 248.66279888 33.51910782 C247.74650194 33.52294896 246.830205 33.52679011 245.88614148 33.53074765 C244.3816381 33.52944793 244.3816381 33.52944793 242.84674072 33.52812195 C241.77837127 33.53109307 240.71000181 33.53406419 239.60925752 33.53712535 C236.01729357 33.54582025 232.42536293 33.54732127 228.83338928 33.54881287 C226.26290821 33.55344044 223.69242782 33.55846502 221.12194824 33.56385803 C214.13020428 33.57743447 207.13846606 33.58346489 200.14671111 33.58786869 C195.78066051 33.59063206 191.41461211 33.59486957 187.048563 33.59937286 C174.95893461 33.61156422 162.86930798 33.62186407 150.77967358 33.62524796 C150.00606085 33.62546752 149.23244812 33.62568709 148.43539258 33.62591331 C147.27220894 33.62624072 147.27220894 33.62624072 146.08552665 33.62657475 C144.51417617 33.62701822 142.94282569 33.62746478 141.37147522 33.62791443 C140.20231088 33.62824657 140.20231088 33.62824657 139.00952706 33.62858543 C126.37889097 33.63253372 113.74831256 33.64998926 101.11769875 33.67327395 C88.14838369 33.69698998 75.17909758 33.70944991 62.20976049 33.71061587 C54.92859811 33.71153245 47.64751091 33.71728043 40.36636925 33.73543549 C33.51851835 33.7524501 26.67081238 33.75408721 19.82294655 33.74529648 C17.3086776 33.74452441 14.79440108 33.74889104 12.28015137 33.75875473 C8.84945859 33.77142515 5.41927541 33.76562367 1.98858643 33.75517273 C0.99227634 33.76322913 -0.00403374 33.77128554 -1.03053504 33.77958608 C-7.31758433 33.73475351 -12.60145977 33.18216746 -17.51499939 28.8525238 C-22.13222106 22.62723527 -22.64262903 18.11719149 -21.77281189 10.38768005 C-20.14177152 6.3522612 -17.97231273 4.15888333 -14.34113216 1.82426357 C-9.47974994 -0.13289864 -5.19331166 -0.03081939 0 0 Z " fill="#FFBB00" transform="translate(133.77281188964844,388.61231994628906)"/>
<path d="M0 0 C3.69209212 2.75453282 6.89898739 5.90073753 10.12814331 9.17584229 C11.16733665 10.21428787 11.16733665 10.21428787 12.2275238 11.27371216 C13.67546966 12.72397951 15.11977111 14.17789403 16.56051636 15.63531494 C18.76693434 17.86552114 20.98658238 20.08190245 23.20822144 22.29693604 C24.61982547 23.71411162 26.03066073 25.13205346 27.44064331 26.55084229 C28.10204819 27.21133575 28.76345306 27.87182922 29.44490051 28.55233765 C30.05636429 29.17333344 30.66782806 29.79432922 31.29782104 30.43414307 C32.10315529 31.2463884 32.10315529 31.2463884 32.92475891 32.07504272 C36.45830914 36.26903892 36.6946589 39.94463281 36.56954956 45.26177979 C36.09096623 49.98779014 34.33891547 52.76481471 30.94454956 55.98052979 C26.02236434 59.2619866 22.28029575 60.33670736 16.31954956 59.73052979 C9.8542468 57.4309576 5.46518086 53.3853594 0.81954956 48.48052979 C0.18790894 47.83084229 -0.44373169 47.18115479 -1.09451294 46.51177979 C-2.63281082 44.92686681 -4.1608855 43.33337611 -5.68045044 41.73052979 C-5.68409607 42.60669952 -5.6877417 43.48286926 -5.6914978 44.3855896 C-5.72941009 52.65441937 -5.78629953 60.92285602 -5.86435318 69.19140816 C-5.90381363 73.44209431 -5.93600898 77.69257375 -5.95144653 81.94342041 C-5.96662279 86.04800211 -6.00108485 90.15201548 -6.04875946 94.25634384 C-6.06356339 95.8199252 -6.07149089 97.38358771 -6.07233429 98.94723892 C-6.07470884 101.14270419 -6.1018236 103.33660496 -6.134552 105.53179932 C-6.14787567 107.40377487 -6.14787567 107.40377487 -6.16146851 109.31356812 C-6.94665279 114.48319819 -9.40569687 117.55138273 -13.18045044 121.04302979 C-17.58985688 124.01937913 -21.38646989 124.09563189 -26.68045044 123.73052979 C-32.35594597 121.68735139 -35.97918764 118.13305537 -38.68045044 112.73052979 C-38.80148725 110.48453762 -38.85795724 108.23498002 -38.88577271 105.98590088 C-38.8956723 105.29310532 -38.9055719 104.60030975 -38.91577148 103.88652039 C-38.94740541 101.592371 -38.9721513 99.29820089 -38.99685669 97.00396729 C-39.01742459 95.41498267 -39.03842102 93.82600354 -39.05982971 92.23703003 C-39.11506734 88.05149784 -39.16446913 83.86591613 -39.212677 79.68029785 C-39.26287969 75.41053858 -39.31857218 71.14085136 -39.37380981 66.87115479 C-39.48141207 58.49100734 -39.58285243 50.11079968 -39.68045044 41.73052979 C-40.06265747 42.13368408 -40.4448645 42.53683838 -40.83865356 42.95220947 C-42.60821595 44.80588463 -44.39404624 46.64308547 -46.18045044 48.48052979 C-47.08150513 49.43185791 -47.08150513 49.43185791 -48.00076294 50.40240479 C-53.01428623 55.52259879 -57.96673112 59.19999845 -65.18045044 60.23052979 C-70.92243084 59.41024687 -75.11356975 57.37776333 -79.11795044 53.16802979 C-81.32610158 49.72331401 -81.87567518 46.9362505 -81.99295044 42.91802979 C-82.03033325 42.08658447 -82.06771606 41.25513916 -82.10623169 40.39849854 C-81.05697533 33.82380043 -75.19960971 28.90288716 -70.71170044 24.35552979 C-70.03554687 23.66797607 -69.35939331 22.98042236 -68.66275024 22.27203369 C-67.23331393 20.82377494 -65.80100249 19.37834896 -64.36599731 17.93560791 C-62.2007991 15.75106029 -60.05793061 13.54610045 -57.91482544 11.33990479 C-41.38419114 -5.44507638 -21.6063786 -14.76145781 0 0 Z " fill="#FD7300" transform="translate(278.6804504394531,42.26947021484375)"/>
<path d="M0 0 C1.34912175 -0.00570742 2.69823867 -0.01267313 4.04734802 -0.02079773 C7.70030875 -0.03870348 11.35302892 -0.03756569 15.00602031 -0.03185534 C18.06014748 -0.02875969 21.1142287 -0.03486013 24.16834933 -0.04089409 C31.37561831 -0.05492924 38.58276873 -0.05338651 45.79003906 -0.04199219 C53.21554394 -0.03051198 60.6406876 -0.04458707 68.06614488 -0.07138866 C74.45106161 -0.09356824 80.83586513 -0.10017797 87.22081763 -0.09431225 C91.03003534 -0.09094683 94.83902154 -0.09332987 98.64820671 -0.11056328 C102.23117942 -0.12606659 105.81361833 -0.1220401 109.39657021 -0.10325813 C111.33105939 -0.09783421 113.26557274 -0.11206065 115.20001221 -0.12695312 C121.94521705 -0.06987285 126.31504103 0.2952053 131.76196289 4.40405273 C135.44829173 8.18490282 136.06557669 11.28534142 136.26196289 16.40405273 C136.07826468 21.52226503 135.33192876 24.54463017 131.76196289 28.40405273 C126.99286612 32.81546725 123.59980149 33.52510162 117.2408905 33.54449463 C116.11801132 33.55020477 114.99513214 33.55591492 113.83822632 33.5617981 C111.9967955 33.56347488 111.9967955 33.56347488 110.11816406 33.56518555 C108.17368629 33.5726329 108.17368629 33.5726329 106.18992615 33.58023071 C102.63608784 33.59333213 99.0822684 33.59979523 95.52840972 33.60424137 C93.30648213 33.60717569 91.08455966 33.61128117 88.86263466 33.61574554 C81.90598233 33.6294144 74.94934174 33.6390841 67.99267691 33.64294744 C59.97099096 33.64742712 51.94947549 33.66497334 43.92784137 33.69394803 C37.72132972 33.71558576 31.51486596 33.72565283 25.30831701 33.72698855 C21.60416657 33.72803507 17.90017652 33.73391003 14.1960659 33.75180817 C10.06192096 33.77139623 5.92813158 33.76699158 1.79394531 33.76049805 C-0.03837646 33.77432022 -0.03837646 33.77432022 -1.90771484 33.78842163 C-8.79649472 33.75451077 -14.5805582 33.6268985 -19.98022461 28.86889648 C-24.59744628 22.64360795 -25.10785425 18.13356417 -24.23803711 10.40405273 C-22.6319226 6.4303039 -20.45969517 4.24208733 -16.96043396 1.84165955 C-11.3532866 -0.3238466 -5.96092254 -0.0213335 0 0 Z " fill="#FFCA00" transform="translate(200.238037109375,452.595947265625)"/>
<path d="M0 0 C4.47673413 2.55577824 7.18180868 5.01741288 8.68359375 10.0859375 C9.51014695 17.09594567 9.05758727 21.44767536 4.68359375 27.0859375 C2.29676714 29.75645932 -0.21609607 32.28977751 -2.75 34.8203125 C-3.46495132 35.53954895 -4.17990265 36.2587854 -4.91651917 36.99981689 C-6.42267676 38.51169492 -7.93143142 40.02098967 -9.44262695 41.52783203 C-11.7516636 43.83369793 -14.04702859 46.15260059 -16.34179688 48.47265625 C-17.81038697 49.94351848 -19.27976161 51.41359787 -20.75 52.8828125 C-21.43348007 53.57550232 -22.11696014 54.26819214 -22.82115173 54.98187256 C-27.37246356 59.48939488 -31.06188751 62.3412711 -37.69140625 62.4609375 C-42.65539892 62.32878462 -45.3346756 61.0527172 -49.31640625 58.0859375 C-53.34975348 53.52188669 -54.55781093 49.06857514 -54.31640625 43.0859375 C-51.31869593 32.4065945 -40.6481161 24.20309971 -33.00952148 16.53881836 C-31.24713647 14.76663006 -29.49571071 12.98404183 -27.74414062 11.20117188 C-26.61133627 10.06184421 -25.47789477 8.92314961 -24.34375 7.78515625 C-23.82795883 7.25701828 -23.31216766 6.72888031 -22.78074646 6.18473816 C-16.33956292 -0.21758927 -8.81810452 -3.47965676 0 0 Z " fill="#FE8A00" transform="translate(429.31640625,159.9140625)"/>
<path d="M0 0 C5.92565399 3.07303853 10.58526402 7.15121106 15.23828125 11.875 C15.885728 12.52194824 16.53317474 13.16889648 17.20024109 13.83544922 C18.55580954 15.19334156 19.90772749 16.55488725 21.25610352 17.91992188 C23.31559139 20.00312699 25.38821056 22.07256078 27.46289062 24.140625 C28.78464984 25.46795814 30.10564064 26.79605701 31.42578125 28.125 C32.34923088 29.04708252 32.34923088 29.04708252 33.29133606 29.98779297 C38.31749286 35.09733216 41.47971865 39.37148308 42.0625 46.65625 C41.9226602 51.90024262 40.30274417 55.73065953 36.5625 59.375 C32.82358668 61.74601821 30.11853261 63.28884983 25.625 63.3125 C24.89539063 63.32925781 24.16578125 63.34601563 23.4140625 63.36328125 C16.29133148 62.29141396 11.86761948 57.29374565 7.046875 52.41015625 C5.93472626 51.29875526 5.93472626 51.29875526 4.80010986 50.16490173 C3.24008451 48.60254299 1.68373386 47.03650741 0.13085938 45.46704102 C-2.24708878 43.06544017 -4.63813796 40.6774965 -7.03125 38.29101562 C-8.54766978 36.76902062 -10.06332155 35.24625996 -11.578125 33.72265625 C-12.2926886 33.00900406 -13.0072522 32.29535187 -13.74346924 31.56007385 C-14.40465759 30.88935349 -15.06584595 30.21863312 -15.74707031 29.52758789 C-16.32853821 28.9415126 -16.9100061 28.35543732 -17.50909424 27.75160217 C-21.26171878 23.34280219 -21.43605692 19.38118782 -21.30859375 13.7578125 C-20.82525409 9.43834664 -19.72579964 7.42472262 -17 4 C-11.82247208 -0.03847178 -6.51536095 -1.50498294 0 0 Z " fill="#FE8A00" transform="translate(95,159)"/>
</svg>
