<?xml version="1.0" encoding="UTF-8"?>
<svg version="1.1" xmlns="http://www.w3.org/2000/svg" width="512" height="512">
<path d="M0 0 C0.70624512 0.17160645 1.41249023 0.34321289 2.14013672 0.52001953 C37.61144401 9.45773465 70.67917211 31.54571987 90 63 C97.9139458 76.38836799 104.19187697 89.90585931 108 105 C108.17354004 105.68513672 108.34708008 106.37027344 108.52587891 107.07617188 C110.02547847 113.15763401 111.06198886 118.73314389 111 125 C111.66319244 124.99111755 112.32638489 124.98223511 113.00967407 124.9730835 C119.92026134 124.88450044 126.83068696 124.82421985 133.74169922 124.78027344 C136.31989088 124.76017437 138.89803704 124.73289059 141.47607422 124.69824219 C145.18468461 124.64965153 148.89269156 124.62701342 152.6015625 124.609375 C153.75177887 124.58872986 154.90199524 124.56808472 156.08706665 124.54681396 C162.38173134 124.54505415 166.24914175 124.71022855 171 129 C175.4297372 134.02835033 176.30016588 136.88165291 176.21484375 143.4609375 C175.81134816 148.22952172 174.04045896 151.01430203 170.625 154.25 C165.81827275 157.45448484 162.06476178 158.25039589 156.30071545 158.25726891 C155.63718889 158.26077498 154.97366233 158.26428105 154.2900289 158.26789337 C152.06283191 158.27720995 149.83589624 158.27228348 147.60868835 158.26742554 C145.99727551 158.27116167 144.38586447 158.27576305 142.77445632 158.28115618 C138.34316187 158.29340616 133.91194281 158.29312337 129.48063529 158.29076743 C124.70273587 158.29035977 119.92486078 158.30139357 115.14697266 158.31088257 C105.78494894 158.32750447 96.4229504 158.33299265 87.06091317 158.33410732 C79.45192423 158.33505723 71.8429436 158.33916465 64.23395729 158.34550858 C42.66704551 158.36312419 21.10015365 158.37234694 -0.46676538 158.37084763 C-1.62975185 158.37076772 -2.79273832 158.3706878 -3.9909668 158.37060547 C-5.15537118 158.37052371 -6.31977557 158.37044195 -7.51946493 158.37035771 C-26.39280081 158.3695447 -45.2660569 158.38868514 -64.1393697 158.4168822 C-83.51250492 158.44559791 -102.8856012 158.45942322 -122.25875825 158.45769465 C-133.13766644 158.4570303 -144.01649098 158.46254243 -154.89538002 158.48405075 C-164.15760494 158.50224526 -173.4197083 158.50662411 -182.68194333 158.4930319 C-187.40800115 158.48649354 -192.13382563 158.48641639 -196.85986137 158.5037384 C-201.18712919 158.51943578 -205.51397803 158.51663974 -209.84123542 158.49917014 C-211.40582276 158.49609288 -212.97044112 158.49975997 -214.5349919 158.51089029 C-229.2453218 158.60860124 -229.2453218 158.60860124 -236 154 C-240.16914657 148.76184149 -241.54727424 144.67674578 -241 138 C-239.19007388 132.72760653 -236.76547618 129.05479243 -232 126 C-228.9714581 124.99048603 -226.95994658 124.878955 -223.79418945 124.88647461 C-222.73331619 124.88655014 -221.67244293 124.88662567 -220.579422 124.88670349 C-219.43559555 124.89186478 -218.2917691 124.89702606 -217.11328125 124.90234375 C-215.35506294 124.90446617 -215.35506294 124.90446617 -213.56132507 124.90663147 C-209.81169093 124.91223612 -206.06211615 124.92478944 -202.3125 124.9375 C-199.77278732 124.9425144 -197.2330737 124.94707741 -194.69335938 124.95117188 C-188.46221927 124.96220706 -182.23111388 124.97894975 -176 125 C-175.82911865 123.54654175 -175.82911865 123.54654175 -175.65478516 122.0637207 C-174.7272474 114.59681103 -173.64046118 107.3822316 -171.375 100.1875 C-171.11630127 99.35202637 -170.85760254 98.51655273 -170.59106445 97.65576172 C-163.29825471 74.88639458 -151.22584395 56.4515372 -135 39 C-134.44828125 38.39414063 -133.8965625 37.78828125 -133.328125 37.1640625 C-100.5694217 2.62146941 -45.58031043 -11.12641538 0 0 Z " fill="#FEA300" transform="translate(283,200)"/>
<path d="M0 0 C0.92885618 -0.00445784 1.85771235 -0.00891569 2.81471568 -0.01350862 C4.34795719 -0.01323207 4.34795719 -0.01323207 5.91217327 -0.01294994 C6.99672808 -0.01662663 8.08128289 -0.02030332 9.19870299 -0.02409142 C12.85138201 -0.03514936 16.50403261 -0.03897566 20.15672588 -0.04278088 C22.76809054 -0.04904384 25.3794543 -0.05569049 27.99081707 -0.0626936 C35.83986199 -0.08245426 43.68890819 -0.09252307 51.53797176 -0.10142139 C55.23358544 -0.10580437 58.92919768 -0.1111711 62.62481022 -0.11641026 C74.9082694 -0.13342106 87.19172769 -0.147916 99.47519684 -0.155159 C102.66265966 -0.15706891 105.85012247 -0.15898924 109.03758526 -0.16094494 C110.225935 -0.16167055 110.225935 -0.16167055 111.43829181 -0.16241082 C124.27661382 -0.17071403 137.11484274 -0.1960565 149.95312408 -0.22852562 C163.13145453 -0.26158332 176.30973764 -0.27960653 189.48810977 -0.28280324 C196.8883305 -0.28496938 204.28841542 -0.29373335 211.68859577 -0.31926441 C218.64808437 -0.3432196 225.60732462 -0.34680521 232.56684589 -0.33650303 C235.1234649 -0.33600596 237.68009568 -0.34237645 240.23667812 -0.35605907 C243.72263747 -0.3736743 247.20770844 -0.36672211 250.69366741 -0.35352612 C252.21687067 -0.36997998 252.21687067 -0.36997998 253.77084571 -0.38676625 C259.53026794 -0.33400436 262.95942311 0.21707313 267.49339581 4.13422108 C271.923133 9.16257141 272.79356169 12.01587398 272.70823956 18.59515858 C272.30474397 23.3637428 270.53385477 26.14852311 267.11839581 29.38422108 C261.09734529 33.39825476 256.01567589 33.42342314 248.96145916 33.40164661 C247.88885729 33.40617773 246.81625542 33.41070884 245.71115047 33.41537726 C242.11077135 33.42805512 238.51054285 33.42639868 234.91014385 33.42474842 C232.33128445 33.43073155 229.75242683 33.43753659 227.17357159 33.44510365 C220.89166985 33.46170921 214.60980565 33.46721299 208.3278838 33.4683284 C203.22080043 33.46927911 198.11372943 33.47339057 193.00664997 33.47972965 C178.52293977 33.49734108 164.03925919 33.50656871 149.5555382 33.5050687 C148.77488717 33.50498879 147.99423613 33.50490888 147.18992901 33.50482655 C146.01752047 33.5047039 146.01752047 33.5047039 144.82142691 33.50457878 C132.15593959 33.50376598 119.49057123 33.52290254 106.82511833 33.55110328 C93.81621017 33.57983987 80.80736 33.59364314 67.7984193 33.59191573 C60.49654098 33.59125208 53.19478736 33.59673327 45.89293766 33.61827183 C39.0253303 33.63839984 32.15799032 33.63780198 25.29036999 33.62323856 C22.77006998 33.6211451 20.24975364 33.62588317 17.7294817 33.63795948 C14.28810501 33.65338108 10.84764024 33.64412301 7.40628338 33.6286974 C6.40967731 33.63898452 5.41307124 33.64927165 4.38626498 33.65987051 C-1.67617575 33.59984771 -6.50449837 32.7405202 -11.50660419 29.13422108 C-15.67575076 23.89606257 -17.05387844 19.81096686 -16.50660419 13.13422108 C-14.69667808 7.8618276 -12.27208038 4.1890135 -7.50660419 1.13422108 C-4.67285085 0.18963663 -2.93519707 0.00653243 0 0 Z " fill="#FFBC00" transform="translate(122.50660419464111,388.86577892303467)"/>
<path d="M0 0 C3.88446678 2.58964452 6.69907021 5.64814041 8.8125 9.875 C8.9348236 12.46773192 8.9981668 15.03538886 9.01782227 17.62939453 C9.02772186 18.42947937 9.03762146 19.22956421 9.04782104 20.05389404 C9.07947262 22.70516983 9.10420789 25.35646356 9.12890625 28.0078125 C9.14947262 29.84341911 9.17046901 31.67902096 9.19187927 33.51461792 C9.24713268 38.35117739 9.29652752 43.18777983 9.34472656 48.02441406 C9.39491774 52.9577213 9.45061623 57.89096596 9.50585938 62.82421875 C9.61348092 72.50775908 9.71491701 82.19135368 9.8125 91.875 C10.27100342 91.40078613 10.72950684 90.92657227 11.2019043 90.43798828 C13.29328215 88.28406701 15.39643175 86.14201466 17.5 84 C18.22123047 83.25363281 18.94246094 82.50726563 19.68554688 81.73828125 C20.39130859 81.02285156 21.09707031 80.30742188 21.82421875 79.5703125 C22.46834717 78.91047363 23.11247559 78.25063477 23.77612305 77.57080078 C28.24208284 73.8517555 32.76474831 73.43346393 38.37890625 73.55859375 C43.28392449 74.19632485 45.97202482 76.9209471 49.125 80.5 C51.47289396 83.80444336 51.98950545 85.61029986 52.0625 89.625 C52.08828125 90.46546875 52.1140625 91.3059375 52.140625 92.171875 C51.28967729 99.18206331 46.60006033 103.54234524 41.8359375 108.28515625 C41.15125397 108.97508163 40.46657043 109.66500702 39.76113892 110.37583923 C38.31410094 111.82928167 36.86319735 113.27888454 35.40869141 114.72485352 C33.20332257 116.9217383 31.01721086 119.13657039 28.83203125 121.35351562 C27.41779889 122.76936101 26.00246865 124.18411077 24.5859375 125.59765625 C23.61979019 126.58065453 23.61979019 126.58065453 22.63412476 127.58351135 C14.37035715 135.72428697 4.46024297 140.6009904 -7.26953125 140.97265625 C-21.86326961 140.20456476 -31.4746932 132.90354172 -41.4609375 122.90234375 C-42.11075592 122.25681046 -42.76057434 121.61127716 -43.43008423 120.94618225 C-44.78876221 119.59320131 -46.14488985 118.23765475 -47.49853516 116.87963867 C-49.56938011 114.80560931 -51.65328146 112.74533476 -53.73828125 110.68554688 C-55.06330955 109.36278961 -56.38755647 108.03924906 -57.7109375 106.71484375 C-58.33173187 106.10325912 -58.95252625 105.4916745 -59.59213257 104.86155701 C-64.11762537 100.28701114 -66.45817251 96.54143043 -66.5625 89.9375 C-66.45607783 85.16269183 -65.40542805 82.52778319 -62.1875 78.875 C-58.1666746 75.33284429 -55.77468367 73.7220397 -50.4375 73.625 C-49.59703125 73.59921875 -48.7565625 73.5734375 -47.890625 73.546875 C-40.55852808 74.43689833 -36.17554857 79.51567343 -31.3125 84.5625 C-30.62414062 85.26439453 -29.93578125 85.96628906 -29.2265625 86.68945312 C-27.53982739 88.41132855 -25.86053303 90.13982574 -24.1875 91.875 C-24.18385437 90.86102142 -24.18020874 89.84704285 -24.17645264 88.80233765 C-24.13948386 79.23852166 -24.08169058 69.6750271 -24.00359726 60.11145592 C-23.96411696 55.19489599 -23.93193117 50.27851531 -23.91650391 45.36181641 C-23.901341 40.61536952 -23.86690189 35.86941542 -23.81919098 31.12318802 C-23.80437342 29.3139843 -23.79645877 27.50471022 -23.79561615 25.69544601 C-23.79324583 23.15759727 -23.76616233 20.62110966 -23.73339844 18.08349609 C-23.74094398 16.96571274 -23.74094398 16.96571274 -23.74864197 15.8253479 C-23.6467405 10.71146546 -22.38212344 7.82914096 -19.1875 3.875 C-13.37010796 -1.37484159 -7.3959011 -2.61031804 0 0 Z " fill="#FD7900" transform="translate(263.1875,27.125)"/>
<path d="M0 0 C1.15660629 -0.0071553 2.31321259 -0.01431061 3.50486755 -0.02168274 C4.77505737 -0.02437164 6.04524719 -0.02706055 7.35392761 -0.02983093 C8.70422541 -0.03609696 10.05452148 -0.04274389 11.40481567 -0.04974365 C15.83990786 -0.07076828 20.27500034 -0.0811439 24.71012878 -0.09111023 C26.23765773 -0.09515825 27.7651865 -0.09927519 29.29271507 -0.10346031 C36.46881331 -0.12250775 43.64490129 -0.13674023 50.82101995 -0.14507228 C59.10199462 -0.15484623 67.3827021 -0.18117154 75.66358262 -0.22157317 C82.06623397 -0.25173828 88.46880873 -0.26654148 94.87152976 -0.26985329 C98.69476567 -0.27220317 102.517716 -0.28115525 106.34087563 -0.30631447 C109.93853371 -0.3296077 113.53571841 -0.33382375 117.13343239 -0.32355309 C119.07891011 -0.32282229 121.02436385 -0.34190436 122.96974182 -0.36161804 C133.62360166 -0.29812081 133.62360166 -0.29812081 138.44059753 4.14717102 C142.87033473 9.17552135 143.74076342 12.02882393 143.65544128 18.60810852 C143.2519457 23.37669274 141.4810565 26.16147305 138.06559753 29.39717102 C133.64472055 32.34442234 130.07133767 33.39646872 124.76803589 33.41459656 C123.63681305 33.42312653 122.50559021 33.43165649 121.34008789 33.44044495 C120.10828293 33.43953857 118.87647797 33.4386322 117.60734558 33.43769836 C115.65042786 33.4477742 115.65042786 33.4477742 113.65397644 33.45805359 C110.08151642 33.47569309 106.50915226 33.48040813 102.9366529 33.48168516 C100.70214137 33.48310863 98.46765407 33.48738196 96.23314857 33.4926796 C88.43029361 33.51117401 80.62750689 33.51935106 72.82463074 33.51777649 C65.5633414 33.51657566 58.30234957 33.53766775 51.04113549 33.56926382 C44.79721043 33.5954603 38.55338233 33.60614236 32.30940276 33.60486567 C28.5845158 33.60435697 24.85989325 33.60998878 21.13506126 33.63122177 C16.97718012 33.65427684 12.81996071 33.64506274 8.66203308 33.63301086 C7.43630081 33.64424988 6.21056854 33.65548889 4.94769287 33.66706848 C-2.02132299 33.61577093 -6.66744453 32.9754178 -12.55940247 29.14717102 C-16.72854903 23.90901251 -18.10667671 19.8239168 -17.55940247 13.14717102 C-15.74947635 7.87477755 -13.32487865 4.20196345 -8.55940247 1.14717102 C-5.44343805 0.10851621 -3.26885597 0.0138709 0 0 Z " fill="#FFCA00" transform="translate(187.5594024658203,452.8528289794922)"/>
<path d="M0 0 C4.1796989 2.8497947 7.11864324 5.98092971 8.75 10.875 C8.953125 12.92578125 8.953125 12.92578125 9 15.1875 C9.02578125 15.92613281 9.0515625 16.66476563 9.078125 17.42578125 C8.12367667 24.5500563 3.04749541 29.01729533 -1.8046875 33.828125 C-2.54324982 34.5695575 -3.28181213 35.31098999 -4.04275513 36.07489014 C-5.6008265 37.63499691 -7.16266854 39.19134593 -8.72802734 40.74414062 C-11.12040962 43.12044048 -13.4963472 45.51234038 -15.87109375 47.90625 C-17.38966385 49.42283802 -18.90916411 50.93849535 -20.4296875 52.453125 C-21.49242386 53.5249704 -21.49242386 53.5249704 -22.57662964 54.61846924 C-23.24727448 55.27965759 -23.91791931 55.94084595 -24.60888672 56.62207031 C-25.19274139 57.20353821 -25.77659607 57.7850061 -26.37814331 58.38409424 C-31.1857258 62.21326154 -36.3534259 62.5324941 -42.25 61.875 C-47.52322153 60.04965409 -50.04691086 57.26780797 -53.25 52.875 C-54.15402948 50.16291157 -54.44179124 48.37107251 -54.5 45.5625 C-54.53867187 44.45455078 -54.53867187 44.45455078 -54.578125 43.32421875 C-53.62367667 36.1999437 -48.54749541 31.73270467 -43.6953125 26.921875 C-42.58746902 25.80972626 -42.58746902 25.80972626 -41.45724487 24.67510986 C-39.8991735 23.11500309 -38.33733146 21.55865407 -36.77197266 20.00585938 C-34.37959038 17.62955952 -32.0036528 15.23765962 -29.62890625 12.84375 C-28.11033615 11.32716198 -26.59083589 9.81150465 -25.0703125 8.296875 C-24.36182159 7.5823114 -23.65333069 6.8677478 -22.92337036 6.13153076 C-22.25272552 5.47034241 -21.58208069 4.80915405 -20.89111328 4.12792969 C-20.30725861 3.54646179 -19.72340393 2.9649939 -19.12185669 2.36590576 C-13.48303031 -2.12533483 -6.5907841 -2.28142527 0 0 Z " fill="#FE8B00" transform="translate(424.25,160.125)"/>
<path d="M0 0 C1.10794922 -0.03867188 1.10794922 -0.03867188 2.23828125 -0.078125 C9.37906263 0.87853471 13.83130611 5.96782889 18.640625 10.83984375 C19.3820575 11.58077774 20.12348999 12.32171173 20.88739014 13.08509827 C22.44741549 14.64745701 24.00376614 16.21349259 25.55664062 17.78295898 C27.93458878 20.18455983 30.32563796 22.5725035 32.71875 24.95898438 C34.23516978 26.48097938 35.75082155 28.00374004 37.265625 29.52734375 C37.9801886 30.24099594 38.6947522 30.95464813 39.43096924 31.68992615 C40.09215759 32.36064651 40.75334595 33.03136688 41.43457031 33.72241211 C42.01603821 34.3084874 42.5975061 34.89456268 43.19659424 35.49839783 C46.94864922 39.90652867 47.12714652 43.8688948 46.9921875 49.4921875 C46.50969864 53.85933025 45.49373186 55.81236597 42.6875 59.25 C38.27673589 62.59541025 33.5632966 64.03207471 28.0355835 63.67253113 C20.95388333 62.39819878 15.3696025 56.38950412 10.484375 51.48046875 C9.83929993 50.84063553 9.19422485 50.20080231 8.52960205 49.5415802 C7.17808586 48.19644334 5.83036661 46.84748155 4.48632812 45.49487305 C2.44106362 43.44107849 0.37778968 41.4066799 -1.6875 39.37304688 C-3.00633963 38.0558192 -4.32408581 36.73749566 -5.640625 35.41796875 C-6.2510968 34.81873093 -6.8615686 34.2194931 -7.49053955 33.60209656 C-12.32197319 28.69177079 -15.82368539 23.67170229 -16.8125 16.75 C-15.99221709 11.0080196 -13.95973354 6.81688068 -9.75 2.8125 C-6.46525546 0.70689452 -3.83244622 0.07942894 0 0 Z " fill="#FE8B00" transform="translate(84.3125,158.75)"/>
</svg>
