<?xml version="1.0" standalone="no"?>
<!DOCTYPE svg PUBLIC "-//W3C//DTD SVG 20010904//EN"
 "http://www.w3.org/TR/2001/REC-SVG-20010904/DTD/svg10.dtd">
<svg version="1.0" xmlns="http://www.w3.org/2000/svg"
 width="512.000000pt" height="512.000000pt" viewBox="0 0 512.000000 512.000000"
 preserveAspectRatio="xMidYMid meet">

<g transform="translate(0.000000,512.000000) scale(0.100000,-0.100000)"
fill="#ffffff" stroke="none">
<path d="M2330 4881 l0 -239 -72 -12 c-373 -58 -706 -203 -1003 -434 -88 -68
-258 -239 -330 -331 -234 -300 -376 -626 -435 -1002 l-12 -73 -239 0 -239 0 0
-230 0 -230 239 0 239 0 12 -72 c59 -377 201 -703 435 -1003 72 -92 242 -263
330 -331 297 -231 630 -376 1003 -434 l72 -12 0 -239 0 -239 230 0 230 0 0
239 0 239 73 12 c372 58 705 203 1002 434 88 68 258 239 330 331 234 300 376
626 435 1003 l12 72 239 0 239 0 0 230 0 230 -239 0 -239 0 -12 73 c-58 372
-203 705 -434 1002 -68 88 -239 258 -331 330 -300 234 -626 376 -1002 435
l-73 12 0 239 0 239 -230 0 -230 0 0 -239z m475 -712 c644 -97 1177 -582 1334
-1214 33 -136 45 -234 45 -395 0 -85 -6 -191 -13 -235 -112 -720 -656 -1264
-1376 -1376 -103 -16 -367 -16 -470 0 -720 112 -1264 656 -1376 1376 -7 44
-13 150 -13 235 0 161 12 259 45 395 143 578 605 1040 1184 1184 73 18 177 35
280 45 60 6 281 -3 360 -15z"/>
<path d="M2435 3483 c-383 -61 -677 -323 -776 -693 -19 -70 -23 -110 -23 -230
0 -120 4 -160 23 -230 73 -272 248 -485 496 -605 143 -69 233 -89 405 -89 172
0 262 20 405 89 248 120 423 333 496 605 33 122 33 338 0 460 -90 333 -343
587 -671 671 -83 21 -283 34 -355 22z"/>
</g>
</svg>
