<?xml version="1.0" standalone="no"?>
<!DOCTYPE svg PUBLIC "-//W3C//DTD SVG 20010904//EN"
 "http://www.w3.org/TR/2001/REC-SVG-20010904/DTD/svg10.dtd">
<svg version="1.0" xmlns="http://www.w3.org/2000/svg"
 width="512.000000pt" height="512.000000pt" viewBox="0 0 512.000000 512.000000"
 preserveAspectRatio="xMidYMid meet">

<g transform="translate(0.000000,512.000000) scale(0.100000,-0.100000)"
fill="#ffffff" stroke="none">
<path d="M2495 4946 c-37 -17 -70 -52 -84 -89 -7 -17 -11 -128 -11 -286 l0
-258 -62 -7 c-288 -32 -659 -188 -868 -365 l-35 -29 -135 133 c-145 143 -167
155 -247 140 -49 -9 -109 -69 -118 -118 -15 -80 -3 -102 140 -247 l133 -135
-29 -35 c-177 -209 -333 -580 -365 -867 l-6 -62 -274 -3 c-257 -3 -274 -4
-300 -24 -53 -39 -69 -71 -69 -134 0 -63 16 -95 69 -134 26 -20 43 -21 300
-24 l274 -3 6 -62 c32 -286 189 -659 365 -867 l29 -35 -133 -135 c-143 -145
-155 -167 -140 -247 9 -49 69 -109 118 -118 80 -15 102 -3 247 140 l135 133
35 -29 c208 -176 581 -333 867 -365 l62 -6 3 -274 c3 -257 4 -274 24 -300 39
-53 71 -69 134 -69 63 0 95 16 134 69 20 26 21 43 24 300 l3 274 62 6 c175 20
382 83 559 171 104 52 302 179 329 211 10 13 32 -4 148 -120 146 -144 167
-156 248 -141 49 9 109 69 118 118 15 81 3 102 -141 248 -116 116 -133 138
-120 148 32 27 159 226 212 331 85 170 151 387 170 557 l6 62 274 3 c257 3
274 4 300 24 53 39 69 71 69 134 0 63 -16 95 -69 134 -26 20 -43 21 -300 24
l-274 3 -6 62 c-32 286 -189 659 -365 867 l-29 35 133 135 c143 145 155 167
140 247 -9 49 -69 109 -118 118 -80 15 -102 3 -247 -140 l-135 -133 -35 29
c-65 55 -201 141 -309 194 -176 88 -384 151 -558 171 l-62 6 -3 274 c-3 257
-4 274 -24 300 -11 15 -32 37 -46 47 -34 25 -113 32 -153 13z m333 -971 c509
-100 933 -470 1097 -958 108 -323 96 -688 -34 -1003 -78 -189 -170 -325 -326
-480 -201 -200 -455 -334 -742 -391 -132 -26 -415 -24 -545 5 -295 65 -526
190 -738 402 -202 201 -327 434 -392 728 -29 130 -31 413 -5 545 124 617 614
1081 1232 1166 98 14 354 6 453 -14z"/>
<path d="M1615 3186 c-41 -18 -83 -69 -90 -109 -3 -18 -5 -262 -3 -544 3 -499
4 -512 24 -539 11 -15 33 -37 48 -48 27 -20 39 -21 406 -21 367 0 379 1 406
21 15 11 37 33 48 48 21 27 21 38 21 566 0 528 0 539 -21 566 -39 53 -71 69
-134 69 -63 0 -95 -16 -134 -69 -20 -27 -21 -41 -24 -457 l-3 -429 -159 0
-159 0 -3 429 c-3 416 -4 430 -24 457 -11 15 -32 37 -46 47 -33 25 -113 32
-153 13z"/>
<path d="M2734 3186 c-17 -8 -44 -30 -59 -50 -53 -69 -54 -65 135 -630 159
-479 174 -517 205 -545 65 -57 153 -54 213 7 34 35 48 72 206 546 184 557 184
553 131 622 -55 72 -153 83 -223 27 -35 -28 -42 -45 -127 -296 -49 -147 -92
-267 -95 -267 -3 0 -46 120 -95 267 -85 252 -92 268 -127 296 -44 35 -115 45
-164 23z"/>
</g>
</svg>
