<?xml version="1.0" encoding="UTF-8"?>
<svg version="1.1" xmlns="http://www.w3.org/2000/svg" width="512" height="512">
<path d="M0 0 C14.28892354 10.97967898 24.33337229 26.09430435 27.171875 44.08203125 C27.305134 47.18835653 27.27915521 50.29050938 27.256073 53.39912415 C27.25324975 54.34105234 27.2504265 55.28298053 27.2475177 56.253452 C27.23711351 59.41159712 27.21973534 62.56966781 27.20263672 65.7277832 C27.19420962 67.99137162 27.18637607 70.25496231 27.17909241 72.51855469 C27.16733617 76.13623182 27.15513468 79.75390296 27.14112353 83.37157214 C27.10657549 92.34059857 27.09040203 101.30952075 27.08547974 110.27861023 C27.08474705 111.57984607 27.08401436 112.8810819 27.08325946 114.22174913 C27.08093319 118.90783065 27.07899298 123.59391218 27.07745823 128.27999403 C27.07587141 133.09120432 27.07360182 137.9024136 27.0703125 142.71362305 C27.0698522 143.39952907 27.0693919 144.08543509 27.06891765 144.79212614 C27.06036511 155.90578187 27.01591069 167.01903438 26.95913516 178.13253567 C26.90171276 189.55054286 26.88695938 200.96789628 26.90853894 212.38606232 C26.91918643 218.79415565 26.91014106 225.20087226 26.85421371 231.60875893 C26.80204335 237.63650298 26.80117864 243.66207666 26.83958244 249.68990326 C26.84457606 251.90062893 26.83077453 254.11148988 26.79669762 256.32195854 C26.18086215 267.88685615 26.18086215 267.88685615 30.5423317 278.07216454 C33.33855436 280.12175132 36.05931891 281.57621722 39.171875 283.08203125 C63.11075985 302.02770449 78.36145975 332.05549059 82.171875 362.08203125 C82.40866507 367.05856928 82.41755116 372.03788529 82.421875 377.01953125 C82.42254974 377.71522217 82.42322449 378.41091309 82.42391968 379.12768555 C82.40806079 389.40661864 82.00701144 399.1133257 79.171875 409.08203125 C78.8315625 410.30921875 78.49125 411.53640625 78.140625 412.80078125 C71.67427789 433.94748396 59.97390534 451.69584381 44.171875 467.08203125 C43.73359375 467.57703125 43.2953125 468.07203125 42.84375 468.58203125 C29.76904415 482.84534673 9.50384705 491.99837514 -8.828125 497.08203125 C-9.9521875 497.40171875 -11.07625 497.72140625 -12.234375 498.05078125 C-30.61674434 502.36664188 -53.66453398 502.24782319 -71.828125 497.08203125 C-73.0553125 496.74171875 -74.2825 496.40140625 -75.546875 496.05078125 C-98.37031491 489.07171285 -121.21334804 475.23242865 -135.828125 456.08203125 C-136.60542969 455.07914062 -137.38273437 454.07625 -138.18359375 453.04296875 C-154.75508414 431.09754005 -163.05431046 405.58211382 -163.078125 378.14453125 C-163.07879974 377.44884033 -163.07947449 376.75314941 -163.08016968 376.03637695 C-163.06431079 365.75744386 -162.66326144 356.0507368 -159.828125 346.08203125 C-159.4878125 344.85484375 -159.1475 343.62765625 -158.796875 342.36328125 C-156.68499799 335.45687264 -154.00696902 328.99237854 -150.828125 322.51953125 C-150.3482312 321.53726563 -150.3482312 321.53726563 -149.85864258 320.53515625 C-147.64654521 316.20580554 -145.19962724 312.60290384 -141.828125 309.08203125 C-137.38026211 308.2083439 -135.600865 308.56687125 -131.828125 311.08203125 C-129.55085727 314.49793285 -129.68880263 316.02933554 -130.30712891 319.99023438 C-131.13050824 323.29609853 -132.76025206 325.92981466 -134.515625 328.83203125 C-147.06149202 350.69444495 -149.79136208 379.73545816 -143.73681641 404.01513672 C-135.8039566 432.20381012 -117.3228336 456.18418383 -91.88183594 470.51464844 C-83.15688371 475.28971194 -74.44124924 478.58935024 -64.828125 481.08203125 C-63.93867188 481.31535156 -63.04921875 481.54867188 -62.1328125 481.7890625 C-34.81431053 488.05518754 -6.81421845 481.34060923 16.859375 467.171875 C29.54578046 459.16806967 41.43095055 448.00124534 49.171875 435.08203125 C49.5234668 434.4988916 49.87505859 433.91575195 50.23730469 433.31494141 C64.74268392 408.84870713 69.84987438 379.46679578 63.046875 351.58203125 C60.95203905 343.62981929 58.05947701 336.33888833 54.171875 329.08203125 C53.71039063 328.14359375 53.24890625 327.20515625 52.7734375 326.23828125 C49.12407668 319.06053291 44.39258117 313.17601918 39.171875 307.08203125 C38.52605469 306.24027344 37.88023437 305.39851563 37.21484375 304.53125 C31.23116625 297.35770164 22.84590422 292.00796712 15.2890625 286.61328125 C13.171875 285.08203125 13.171875 285.08203125 12.171875 284.08203125 C12.06593258 281.18052334 12.02583365 278.3024534 12.02711487 275.40022278 C12.02358802 274.47819634 12.02006118 273.55616989 12.01642746 272.60620326 C12.00568322 269.49112601 12.00204946 266.37607928 11.99829102 263.26098633 C11.99198971 261.03727589 11.98522439 258.81356673 11.97802734 256.58985901 C11.96332172 251.7864235 11.95161108 246.98299298 11.94207954 242.17954445 C11.92665435 234.57667877 11.90270181 226.97385508 11.87718201 219.37101746 C11.84202286 208.70185959 11.80894422 198.03269912 11.77905273 187.36352539 C11.77715224 186.68590307 11.77525175 186.00828075 11.77329367 185.31012442 C11.74652976 175.71902753 11.72264179 166.1279256 11.69990867 156.53681841 C11.69831137 155.86313757 11.69671406 155.18945674 11.69506836 154.49536133 C11.69347489 153.8225047 11.69188143 153.14964808 11.69023968 152.45640186 C11.66339331 141.20361326 11.62884285 129.95086279 11.58841461 118.69811362 C11.5617198 111.14947793 11.54376599 103.60088873 11.53237736 96.05221522 C11.52320737 91.33703866 11.50582376 86.62191806 11.48619843 81.90677452 C11.47876658 79.73087323 11.47464452 77.55495752 11.47420311 75.37904358 C11.46659574 54.61858242 10.92034621 35.3553444 -3.828125 19.08203125 C-11.75687296 12.20505598 -20.44193996 6.94424927 -30.828125 5.08203125 C-31.57707031 4.94667969 -32.32601562 4.81132812 -33.09765625 4.671875 C-46.99918085 2.71802582 -60.09212363 6.98641325 -71.578125 14.70703125 C-83.61441542 23.9683844 -89.48400127 37.04007895 -91.44161034 51.80308151 C-92.35596989 60.67110456 -92.09265491 69.63496905 -92.06762695 78.53759766 C-92.06874166 80.77945011 -92.07080231 83.02130226 -92.07373047 85.26315308 C-92.07842818 90.0636725 -92.07735861 94.8641429 -92.07195473 99.66466141 C-92.06431429 107.2532323 -92.07503237 114.84170971 -92.0891571 122.43026733 C-92.10772359 133.06369917 -92.12300724 143.69712232 -92.1315918 154.33056641 C-92.13213986 155.00346031 -92.13268792 155.67635422 -92.13325258 156.36963885 C-92.14173717 167.30741741 -92.13835868 178.24517148 -92.13243745 189.18295021 C-92.1268242 200.43386655 -92.1406317 211.68466065 -92.16999024 222.93554819 C-92.18867478 230.48293385 -92.18529936 238.02988916 -92.16582263 245.57726789 C-92.15896074 250.26033158 -92.17285702 254.94315952 -92.19277191 259.62617874 C-92.19783502 261.80146008 -92.19429376 263.97678052 -92.18163872 266.15203094 C-92.16562081 269.11509288 -92.18009198 272.07647429 -92.2023468 275.03945923 C-92.1903093 275.9053944 -92.17827181 276.77132957 -92.16586953 277.6635052 C-92.25551828 283.49217195 -92.25551828 283.49217195 -95.18364239 286.50852013 C-96.05632165 287.0277788 -96.92900091 287.54703747 -97.828125 288.08203125 C-98.7975 288.81421875 -99.766875 289.54640625 -100.765625 290.30078125 C-102.80729167 291.82161458 -104.84895833 293.34244792 -106.890625 294.86328125 C-108.7969621 296.30317416 -110.67463974 297.78212847 -112.515625 299.3046875 C-115.38633663 301.51106215 -117.21797041 302.0068197 -120.828125 302.08203125 C-125.39334239 299.95159647 -125.39334239 299.95159647 -126.828125 297.08203125 C-127.453125 294.01953125 -127.453125 294.01953125 -126.828125 290.08203125 C-123.76271824 286.00426152 -120.11982467 282.33480813 -115.6199578 279.8749181 C-110.90585435 277.32110956 -110.90585435 277.32110956 -107.99545503 273.02922797 C-107.68456968 270.53818392 -107.65800937 268.18124854 -107.72805786 265.67160034 C-107.71840118 264.73163999 -107.7087445 263.79167963 -107.6987952 262.82323563 C-107.67729784 259.67609379 -107.71990775 256.53311296 -107.76220703 253.38623047 C-107.75979416 251.12897501 -107.75338243 248.8717208 -107.74327087 246.61448669 C-107.7301767 241.75393498 -107.7455656 236.89459853 -107.78305435 232.03417587 C-107.84236973 224.34306734 -107.83964054 216.65273974 -107.8288269 208.9614563 C-107.82035358 198.17232355 -107.84110007 187.38373941 -107.88671875 176.59472656 C-107.93345037 165.51367312 -107.96998519 154.43270439 -107.98730469 143.3515625 C-107.98837841 142.6699277 -107.98945214 141.9882929 -107.9905584 141.2860025 C-108.00787608 129.89523158 -108.01269777 118.50446801 -108.01339042 107.11368382 C-108.01556332 99.47486172 -108.03659476 91.83638984 -108.07358098 84.19765925 C-108.09429545 79.43454273 -108.10305408 74.67145187 -108.10920906 69.90829659 C-108.11476493 67.70733348 -108.12551875 65.50637607 -108.14199257 63.30546761 C-108.30850396 40.47078025 -104.12714525 22.78270937 -87.7421875 5.9375 C-63.76964856 -16.69361528 -26.85141124 -18.21000403 0 0 Z " fill="#ffffff" transform="translate(429.828125,11.91796875)"/>
<path d="M0 0 C14.28892354 10.97967898 24.33337229 26.09430435 27.171875 44.08203125 C27.305134 47.18835653 27.27915521 50.29050938 27.256073 53.39912415 C27.25324975 54.34105234 27.2504265 55.28298053 27.2475177 56.253452 C27.23711351 59.41159712 27.21973534 62.56966781 27.20263672 65.7277832 C27.19420962 67.99137162 27.18637607 70.25496231 27.17909241 72.51855469 C27.16733617 76.13623182 27.15513468 79.75390296 27.14112353 83.37157214 C27.10657549 92.34059857 27.09040203 101.30952075 27.08547974 110.27861023 C27.08474705 111.57984607 27.08401436 112.8810819 27.08325946 114.22174913 C27.08093319 118.90783065 27.07899298 123.59391218 27.07745823 128.27999403 C27.07587141 133.09120432 27.07360182 137.9024136 27.0703125 142.71362305 C27.0698522 143.39952907 27.0693919 144.08543509 27.06891765 144.79212614 C27.06036511 155.90578187 27.01591069 167.01903438 26.95913516 178.13253567 C26.90171276 189.55054286 26.88695938 200.96789628 26.90853894 212.38606232 C26.91918643 218.79415565 26.91014106 225.20087226 26.85421371 231.60875893 C26.80204335 237.63650298 26.80117864 243.66207666 26.83958244 249.68990326 C26.84457606 251.90062893 26.83077453 254.11148988 26.79669762 256.32195854 C26.18121161 267.87792237 26.18121161 267.87792237 30.5291481 278.06117821 C33.32821613 280.11185922 36.06180141 281.56349898 39.171875 283.08203125 C46.51705054 288.90683902 52.56520764 295.59367415 58.171875 303.08203125 C58.77515625 303.88157227 58.77515625 303.88157227 59.390625 304.69726562 C75.25134749 326.03489386 82.39896762 350.62711964 82.421875 377.01953125 C82.42254974 377.71522217 82.42322449 378.41091309 82.42391968 379.12768555 C82.40806079 389.40661864 82.00701144 399.1133257 79.171875 409.08203125 C78.8315625 410.30921875 78.49125 411.53640625 78.140625 412.80078125 C72.32535579 431.81828325 62.25445324 448.99945301 48.171875 463.08203125 C44.67297634 463.34609907 42.03088185 463.46632379 38.796875 462.01953125 C36.32568716 459.07311498 36.171875 456.88835335 36.171875 453.08203125 C38.58851287 449.05249124 41.4408568 445.44293029 44.359375 441.76953125 C62.23870581 417.86180765 68.45384971 389.43033556 64.7734375 359.88330078 C62.87200234 348.94090708 59.41426586 338.86782752 54.171875 329.08203125 C53.71039063 328.14359375 53.24890625 327.20515625 52.7734375 326.23828125 C49.12407668 319.06053291 44.39258117 313.17601918 39.171875 307.08203125 C38.52605469 306.24027344 37.88023437 305.39851563 37.21484375 304.53125 C31.23116625 297.35770164 22.84590422 292.00796712 15.2890625 286.61328125 C13.171875 285.08203125 13.171875 285.08203125 12.171875 284.08203125 C12.06593258 281.18052334 12.02583365 278.3024534 12.02711487 275.40022278 C12.02358802 274.47819634 12.02006118 273.55616989 12.01642746 272.60620326 C12.00568322 269.49112601 12.00204946 266.37607928 11.99829102 263.26098633 C11.99198971 261.03727589 11.98522439 258.81356673 11.97802734 256.58985901 C11.96332172 251.7864235 11.95161108 246.98299298 11.94207954 242.17954445 C11.92665435 234.57667877 11.90270181 226.97385508 11.87718201 219.37101746 C11.84202286 208.70185959 11.80894422 198.03269912 11.77905273 187.36352539 C11.77715224 186.68590307 11.77525175 186.00828075 11.77329367 185.31012442 C11.74652976 175.71902753 11.72264179 166.1279256 11.69990867 156.53681841 C11.69831137 155.86313757 11.69671406 155.18945674 11.69506836 154.49536133 C11.69347489 153.8225047 11.69188143 153.14964808 11.69023968 152.45640186 C11.66339331 141.20361326 11.62884285 129.95086279 11.58841461 118.69811362 C11.5617198 111.14947793 11.54376599 103.60088873 11.53237736 96.05221522 C11.52320737 91.33703866 11.50582376 86.62191806 11.48619843 81.90677452 C11.47876658 79.73087323 11.47464452 77.55495752 11.47420311 75.37904358 C11.46659574 54.61858242 10.92034621 35.3553444 -3.828125 19.08203125 C-11.75687296 12.20505598 -20.44193996 6.94424927 -30.828125 5.08203125 C-31.57707031 4.94667969 -32.32601562 4.81132812 -33.09765625 4.671875 C-46.99918085 2.71802582 -60.09212363 6.98641325 -71.578125 14.70703125 C-83.61282575 23.96716122 -89.48820117 37.04373886 -91.44552422 51.80601692 C-92.35323551 60.6573479 -92.05602899 69.60533247 -92.00415039 78.48999023 C-91.99870577 80.7269723 -91.99427836 82.96395703 -91.99078369 85.20094299 C-91.9819965 89.99164546 -91.96775698 94.78228937 -91.94969368 99.57296562 C-91.92286446 107.14974044 -91.91883454 114.72642169 -91.91978455 122.30323792 C-91.91986023 124.90306377 -91.91992595 127.50288963 -91.91998196 130.10271549 C-91.92003164 131.40382806 -91.92008133 132.70494063 -91.92013252 134.04548085 C-91.91977685 140.75224627 -91.91694388 147.45900801 -91.91186523 154.16577148 C-91.91136405 154.83787846 -91.91086287 155.50998543 -91.9103465 156.20245928 C-91.90136634 167.11890101 -91.8664134 178.03513646 -91.82382626 188.95149183 C-91.78079498 200.18549616 -91.77272479 211.41918687 -91.79363626 222.6532827 C-91.80402472 228.9509454 -91.79785211 235.24763603 -91.75248909 241.54516411 C-91.71004218 247.4595314 -91.70918937 253.37243207 -91.74034119 259.2868557 C-91.74429145 261.4560707 -91.73283315 263.62537685 -91.70481682 265.79441452 C-91.50525466 282.21223912 -91.50525466 282.21223912 -94.8113842 286.88524055 C-97.09511741 288.69107566 -99.17943219 289.90253149 -101.828125 291.08203125 C-102.69824219 291.75492187 -103.56835938 292.4278125 -104.46484375 293.12109375 C-105.14160156 293.64445312 -105.81835938 294.1678125 -106.515625 294.70703125 C-107.26199219 295.29226563 -108.00835937 295.8775 -108.77734375 296.48046875 C-110.44603334 297.78363585 -112.13432087 299.06167815 -113.828125 300.33203125 C-131.51720966 315.32610301 -142.6734536 340.41469705 -145.828125 363.08203125 C-147.92823633 393.75201989 -142.15958872 421.43836303 -122.12109375 445.5078125 C-106.35027319 463.21304376 -87.87371779 475.10631408 -64.828125 481.08203125 C-63.93867187 481.31535156 -63.04921875 481.54867188 -62.1328125 481.7890625 C-37.24488305 487.49767998 -10.31004573 482.80728467 11.61791992 470.06616211 C15.46846947 467.84019105 18.6223143 466.33880819 23.171875 466.08203125 C25.49919056 467.21982997 27.34028214 468.25043839 29.171875 470.08203125 C29.73490021 475.71228335 29.73490021 475.71228335 29.171875 478.08203125 C25.63344143 482.40603736 21.6686609 484.71445642 16.734375 487.08203125 C16.03280273 487.42451904 15.33123047 487.76700684 14.60839844 488.11987305 C-2.94203577 496.513473 -20.36427934 500.31519179 -39.765625 500.33203125 C-40.46131592 500.33270599 -41.15700684 500.33338074 -41.8737793 500.33407593 C-52.15271239 500.31821704 -61.85941945 499.91716769 -71.828125 497.08203125 C-73.0553125 496.74171875 -74.2825 496.40140625 -75.546875 496.05078125 C-107.70205349 486.21820601 -133.36452773 464.53707985 -149.61181641 435.37402344 C-159.17477127 417.35374639 -163.06048448 398.46880537 -163.078125 378.14453125 C-163.07879974 377.44884033 -163.07947449 376.75314941 -163.08016968 376.03637695 C-163.06431079 365.75744386 -162.66326144 356.0507368 -159.828125 346.08203125 C-159.4878125 344.85484375 -159.1475 343.62765625 -158.796875 342.36328125 C-153.44008115 324.84511758 -144.47562258 308.69654756 -131.90625 295.3359375 C-129.78353962 293.0995376 -129.78353962 293.0995376 -127.8984375 290.58203125 C-125.6319362 287.84512402 -123.21900695 285.74695719 -120.453125 283.51953125 C-119.53789063 282.77574219 -118.62265625 282.03195312 -117.6796875 281.265625 C-114.828125 279.08203125 -114.828125 279.08203125 -111.69610882 277.51867676 C-108.63479011 274.91777349 -108.4077134 274.71902107 -108.08260059 271.01574707 C-108.05391493 269.31477511 -108.05857023 267.61305422 -108.08882141 265.91210938 C-108.08172801 264.97385787 -108.0746346 264.03560637 -108.06732625 263.068923 C-108.05072168 259.91641596 -108.07693514 256.76570506 -108.1027832 253.61328125 C-108.0995252 251.35632305 -108.09359082 249.09936735 -108.08517456 246.84242249 C-108.07274898 241.97664442 -108.07924194 237.11138363 -108.10024452 232.24563599 C-108.13326689 224.54636448 -108.12401862 216.84749947 -108.1089325 209.14819336 C-108.09217888 198.34726214 -108.09420529 187.54652847 -108.11303711 176.74560547 C-108.11422644 176.06018319 -108.11541576 175.37476091 -108.11664113 174.66856825 C-108.11842937 173.63922055 -108.11842937 173.63922055 -108.12025374 172.58907795 C-108.13706924 162.87985971 -108.14812275 153.17065818 -108.15209961 143.46142578 C-108.15238516 142.77926553 -108.15267072 142.09710529 -108.15296493 141.39427352 C-108.15724242 129.99451037 -108.14935317 118.59478037 -108.13540143 107.19502449 C-108.12732491 99.54789378 -108.13587799 91.90101582 -108.15796435 84.25391483 C-108.16908516 79.48422245 -108.1680554 74.71458466 -108.1640892 69.94488335 C-108.16487272 67.74070865 -108.17079356 65.53652856 -108.18236732 63.33238411 C-108.29741666 40.49429346 -104.13169431 22.78738621 -87.7421875 5.9375 C-63.76964856 -16.69361528 -26.85141124 -18.21000403 0 0 Z " fill="#ffffff" transform="translate(162.828125,11.91796875)"/>
<path d="M0 0 C8.48592402 6.18507581 16.19152594 14.32171998 18 25 C18.33108902 29.58595085 18.37012563 34.15347224 18.375 38.75 C18.39949219 39.98105469 18.42398438 41.21210937 18.44921875 42.48046875 C18.45308594 43.65738281 18.45695313 44.83429688 18.4609375 46.046875 C18.46915527 47.11776367 18.47737305 48.18865234 18.48583984 49.29199219 C18 52 18 52 16.18994141 53.84863281 C12.98310488 55.53463516 10.56413037 55.38187111 7 55 C4.8203125 54.015625 4.8203125 54.015625 3 52 C2.58978913 49.02151237 2.40000036 46.35697027 2.375 43.375 C2.32144093 41.7420146 2.26290606 40.10918426 2.19921875 38.4765625 C2.17005371 37.69829102 2.14088867 36.92001953 2.11083984 36.11816406 C1.76544942 29.51770751 0.23225457 24.19962705 -4 19 C-9.06936743 14.43756931 -13.13837749 12.4574415 -20 12 C-26.67546944 12.81345179 -31.71237171 15.45819079 -36.25 20.5 C-39.20632042 24.72331488 -40.34567585 28.128727 -41.125 33.25 C-41.29257812 34.32765625 -41.46015625 35.4053125 -41.6328125 36.515625 C-41.75398438 37.33546875 -41.87515625 38.1553125 -42 39 C-41.11957031 38.97679687 -40.23914063 38.95359375 -39.33203125 38.9296875 C-38.17058594 38.91164062 -37.00914062 38.89359375 -35.8125 38.875 C-34.66394531 38.85179687 -33.51539063 38.82859375 -32.33203125 38.8046875 C-27.93181909 39.06261318 -25.13095049 39.86904951 -22 43 C-21.6640625 45.05859375 -21.6640625 45.05859375 -21.625 47.4375 C-21.59664063 48.21996094 -21.56828125 49.00242188 -21.5390625 49.80859375 C-22 52 -22 52 -23.5078125 53.7734375 C-27.04860934 55.51608673 -30.39996608 55.32014251 -34.25 55.1875 C-34.99507813 55.17396484 -35.74015625 55.16042969 -36.5078125 55.14648438 C-38.33885416 55.11127204 -40.16952169 55.05746851 -42 55 C-42 59.62 -42 64.24 -42 69 C-40.42065674 68.98952637 -38.84131348 68.97905273 -37.21411133 68.96826172 C-31.35296903 68.93205376 -25.49183662 68.90909648 -19.63061523 68.89013672 C-17.09413999 68.88008099 -14.55767632 68.86643465 -12.02124023 68.84912109 C-8.37480814 68.82485437 -4.72852937 68.8135125 -1.08203125 68.8046875 C0.05147263 68.79436493 1.1849765 68.78404236 2.35282898 68.77340698 C3.41355118 68.77325592 4.47427338 68.77310486 5.56713867 68.77294922 C6.96279305 68.76628738 6.96279305 68.76628738 8.38664246 68.75949097 C12.39851674 69.12870643 15.14544815 70.14544815 18 73 C18.19320619 75.62087915 18.2604849 78.13565468 18.24050903 80.75735474 C18.24221788 81.56760695 18.24392673 82.37785917 18.24568737 83.21266448 C18.24899623 85.94280873 18.23795573 88.67271022 18.22705078 91.40283203 C18.22648697 93.35384109 18.22680264 95.30485057 18.22793579 97.25585938 C18.22851147 102.56552584 18.21672238 107.87510262 18.20278788 113.18474817 C18.19031633 118.72878221 18.18911285 124.27281812 18.18673706 129.81686401 C18.18051175 140.32119322 18.16408675 150.82548098 18.14403808 161.3297919 C18.12171173 173.28607418 18.11069388 185.2423584 18.10064721 197.19865632 C18.07972141 221.79912723 18.04452506 246.39956129 18 271 C18.76046631 271.13035645 19.52093262 271.26071289 20.30444336 271.39501953 C23.84664586 272.19001797 26.56342737 273.91456543 29.5625 275.875 C30.17311279 276.27283691 30.78372559 276.67067383 31.4128418 277.08056641 C52.4247671 291.1683857 65.88713051 311.63039081 72 336 C76.5891404 360.22634409 72.5043112 385.4673026 59.1875 406.25 C55.21706437 411.92312719 50.85303943 417.06553374 46 422 C44.87851562 423.14082031 44.87851562 423.14082031 43.734375 424.3046875 C33.62222131 433.98154981 21.33140218 440.83903604 8 445 C7.01902344 445.31839844 6.03804688 445.63679688 5.02734375 445.96484375 C-17.7095594 452.0787322 -43.2502872 448.7087314 -64 438 C-72.15815741 433.2652657 -79.28407718 427.60509901 -86 421 C-86.76054687 420.25234375 -87.52109375 419.5046875 -88.3046875 418.734375 C-97.98154981 408.62222131 -104.83903604 396.33140218 -109 383 C-109.31839844 382.01902344 -109.63679688 381.03804688 -109.96484375 380.02734375 C-116.53733738 355.58493656 -112.07674264 330.05362467 -100.25292969 308.16699219 C-97.05687194 302.63928201 -93.21904015 297.78918071 -89 293 C-87.92298828 291.77410156 -87.92298828 291.77410156 -86.82421875 290.5234375 C-79.10110783 282.30616044 -69.34950683 275.49129542 -59 271 C-58.34 271 -57.68 271 -57 271 C-57.00368717 269.74232158 -57.00737434 268.48464315 -57.01117325 267.18885326 C-57.09787872 237.30754972 -57.16379907 207.42627872 -57.20426132 177.54488013 C-57.20926391 173.86382286 -57.21444122 170.18276586 -57.21972656 166.50170898 C-57.2207758 165.76890317 -57.22182505 165.03609735 -57.22290608 164.28108529 C-57.24029254 152.42886563 -57.27182048 140.57672389 -57.30861118 128.72455039 C-57.34606967 116.55539859 -57.36824621 104.38628749 -57.37635398 92.21708041 C-57.38183161 84.71315847 -57.39910723 77.2094568 -57.43166587 69.70560268 C-57.45538824 63.94334804 -57.45780748 58.1812333 -57.45243073 52.41893959 C-57.45352865 50.06114982 -57.46145157 47.7033515 -57.4768219 45.34561157 C-57.49682966 42.11740921 -57.49189935 38.89013652 -57.48101807 35.66191101 C-57.49266943 34.73677899 -57.5043208 33.81164696 -57.51632524 32.85848063 C-57.41924633 22.14621321 -53.83961719 13.87971135 -46.43359375 6.23046875 C-34.19076182 -4.99048956 -14.93112713 -8.70592366 0 0 Z M-42 85 C-42 89.62 -42 94.24 -42 99 C-39.958125 99.12375 -37.91625 99.2475 -35.8125 99.375 C-26.03225806 99.96774194 -26.03225806 99.96774194 -23 103 C-22.796875 104.99609375 -22.796875 104.99609375 -22.75 107.4375 C-22.72421875 108.24058594 -22.6984375 109.04367188 -22.671875 109.87109375 C-22.78015625 110.57363281 -22.8884375 111.27617187 -23 112 C-26.72066472 114.48044315 -29.86540474 114.44381173 -34.1875 114.625 C-34.93708984 114.66367188 -35.68667969 114.70234375 -36.45898438 114.7421875 C-38.30559199 114.83628216 -40.1527619 114.91922319 -42 115 C-42 119.62 -42 124.24 -42 129 C-39.958125 129.12375 -37.91625 129.2475 -35.8125 129.375 C-26.03225806 129.96774194 -26.03225806 129.96774194 -23 133 C-22.796875 134.99609375 -22.796875 134.99609375 -22.75 137.4375 C-22.72421875 138.24058594 -22.6984375 139.04367188 -22.671875 139.87109375 C-22.78015625 140.57363281 -22.8884375 141.27617187 -23 142 C-26.72066472 144.48044315 -29.86540474 144.44381173 -34.1875 144.625 C-35.31188477 144.68300781 -35.31188477 144.68300781 -36.45898438 144.7421875 C-38.30559199 144.83628216 -40.1527619 144.91922319 -42 145 C-42 149.62 -42 154.24 -42 159 C-39.958125 159.12375 -37.91625 159.2475 -35.8125 159.375 C-26.03225806 159.96774194 -26.03225806 159.96774194 -23 163 C-22.796875 164.99609375 -22.796875 164.99609375 -22.75 167.4375 C-22.72421875 168.24058594 -22.6984375 169.04367188 -22.671875 169.87109375 C-22.78015625 170.57363281 -22.8884375 171.27617187 -23 172 C-26.72066472 174.48044315 -29.86540474 174.44381173 -34.1875 174.625 C-34.93708984 174.66367188 -35.68667969 174.70234375 -36.45898438 174.7421875 C-38.30559199 174.83628216 -40.1527619 174.91922319 -42 175 C-42 179.62 -42 184.24 -42 189 C-39.958125 189.12375 -37.91625 189.2475 -35.8125 189.375 C-26.03225806 189.96774194 -26.03225806 189.96774194 -23 193 C-22.796875 194.99609375 -22.796875 194.99609375 -22.75 197.4375 C-22.72421875 198.24058594 -22.6984375 199.04367188 -22.671875 199.87109375 C-22.78015625 200.57363281 -22.8884375 201.27617187 -23 202 C-26.72066472 204.48044315 -29.86540474 204.44381173 -34.1875 204.625 C-34.93708984 204.66367188 -35.68667969 204.70234375 -36.45898438 204.7421875 C-38.30559199 204.83628216 -40.1527619 204.91922319 -42 205 C-42 209.62 -42 214.24 -42 219 C-39.958125 219.12375 -37.91625 219.2475 -35.8125 219.375 C-26.03225806 219.96774194 -26.03225806 219.96774194 -23 223 C-22.796875 224.99609375 -22.796875 224.99609375 -22.75 227.4375 C-22.72421875 228.24058594 -22.6984375 229.04367187 -22.671875 229.87109375 C-22.78015625 230.57363281 -22.8884375 231.27617187 -23 232 C-26.72066472 234.48044315 -29.86540474 234.44381173 -34.1875 234.625 C-34.93708984 234.66367187 -35.68667969 234.70234375 -36.45898438 234.7421875 C-38.30559199 234.83628216 -40.1527619 234.91922319 -42 235 C-42.00586624 235.55710159 -42.01173248 236.11420319 -42.01777649 236.68818665 C-42.08164414 242.47955461 -42.16604596 248.27036344 -42.26245117 254.0612793 C-42.29573322 256.22331375 -42.32375485 258.38543577 -42.34643555 260.54760742 C-42.37992108 263.65321218 -42.432234 266.75801198 -42.48828125 269.86328125 C-42.49786613 271.31653557 -42.49786613 271.31653557 -42.50764465 272.79914856 C-42.52743881 273.6998558 -42.54723297 274.60056305 -42.56762695 275.52856445 C-42.57873001 276.32132278 -42.58983307 277.11408112 -42.60127258 277.93086243 C-43.10489823 280.54435402 -43.92927123 281.3677164 -46 283 C-48.50685424 284.2833045 -51.01186238 285.49939882 -53.5625 286.6875 C-60.47397079 290.02795365 -66.30251743 293.80211011 -72 299 C-72.6084375 299.51691406 -73.216875 300.03382813 -73.84375 300.56640625 C-82.87094926 308.75243467 -89.0701521 320.62655786 -93 332 C-93.47759766 333.27230469 -93.47759766 333.27230469 -93.96484375 334.5703125 C-100.1060096 353.98432067 -96.17803421 374.64452504 -87.20727539 392.30249023 C-84.11033864 398.10293253 -80.43558232 403.13809382 -76 408 C-75.48308594 408.6084375 -74.96617187 409.216875 -74.43359375 409.84375 C-61.60635396 423.98907708 -41.24464328 431.94490343 -22.546875 432.99609375 C-1.42609943 433.01935452 17.06352374 425.90670132 33 412 C33.61488281 411.48050781 34.22976563 410.96101563 34.86328125 410.42578125 C48.11866951 398.32833495 56.47186892 379.28117444 57.3203125 361.5859375 C57.95975981 339.37850379 52.18202458 319.64123758 37 303 C36.22462891 302.08734375 36.22462891 302.08734375 35.43359375 301.15625 C27.91579141 292.86594165 16.29792509 286.23406424 6 282 C5.34 282 4.68 282 4 282 C3.67 216.99 3.34 151.98 3 85 C-11.85 85 -26.7 85 -42 85 Z " fill="#ffffff" transform="translate(409,34)"/>
<path d="M0 0 C8.5552244 6.2355863 16.06978717 14.29658058 18 25 C18.30511126 29.74510621 18.29446326 34.48824777 18.29052734 39.24121094 C18.29651789 40.68563686 18.30332464 42.13005958 18.31088257 43.57447815 C18.32848548 47.48118254 18.33323522 51.38779923 18.33451414 55.29453945 C18.33593829 57.7357289 18.34021263 60.17689621 18.34550858 62.61808014 C18.36398219 71.1348868 18.37218157 79.651631 18.37060547 88.16845703 C18.36940124 96.1092489 18.39056523 104.04977021 18.4220928 111.99049354 C18.44821205 118.81186953 18.45897477 125.63315681 18.45769465 132.45458245 C18.4571842 136.52747397 18.46291419 140.60012429 18.48405075 144.672966 C18.50336286 148.49803581 18.5036065 152.32263228 18.48901749 156.14771843 C18.48692025 157.55262122 18.49168453 158.95755314 18.5037384 160.36240578 C18.51910347 162.27676197 18.50752351 164.19127847 18.49447632 166.10565186 C18.49556585 167.1778233 18.49665539 168.24999474 18.49777794 169.35465622 C18 172 18 172 16.18784523 173.84495926 C12.98269605 175.53707067 10.56502169 175.38196661 7 175 C4.81284523 173.82276344 4.81284523 173.82276344 3 172 C2.49777794 169.50079918 2.49777794 169.50079918 2.49447632 166.46078491 C2.47794258 164.73237869 2.47794258 164.73237869 2.46107483 162.96905518 C2.46924728 161.70357849 2.47741974 160.43810181 2.48583984 159.13427734 C2.48037989 157.78884071 2.47313897 156.44341029 2.46424866 155.09799194 C2.44889467 152.19884049 2.44611653 149.30004302 2.45301437 146.40085983 C2.4637966 141.81093262 2.44642143 137.22137514 2.42520142 132.63150024 C2.39491409 125.36432353 2.383245 118.09725608 2.37962496 110.8300215 C2.3729896 97.83706874 2.34383004 84.84419315 2.2945286 71.85133326 C2.27808921 67.29517919 2.27260279 62.73918402 2.27611899 58.18300319 C2.27655843 55.33747263 2.26895552 52.49200115 2.25944328 49.64648819 C2.25551387 47.71236615 2.26150398 45.77823177 2.26786804 43.84411621 C2.22543591 34.62757175 2.02574512 26.40305829 -4 19 C-9.06936743 14.43756931 -13.13837749 12.4574415 -20 12 C-26.67546944 12.81345179 -31.71237171 15.45819079 -36.25 20.5 C-39.20632042 24.72331488 -40.34567585 28.128727 -41.125 33.25 C-41.29257813 34.32765625 -41.46015625 35.4053125 -41.6328125 36.515625 C-41.75398438 37.33546875 -41.87515625 38.1553125 -42 39 C-41.11957031 38.97679687 -40.23914063 38.95359375 -39.33203125 38.9296875 C-38.17058594 38.91164062 -37.00914063 38.89359375 -35.8125 38.875 C-34.66394531 38.85179687 -33.51539062 38.82859375 -32.33203125 38.8046875 C-27.93181909 39.06261318 -25.13095049 39.86904951 -22 43 C-21.6640625 45.05859375 -21.6640625 45.05859375 -21.625 47.4375 C-21.59664063 48.21996094 -21.56828125 49.00242188 -21.5390625 49.80859375 C-22 52 -22 52 -23.5078125 53.7734375 C-27.04860934 55.51608673 -30.39996608 55.32014251 -34.25 55.1875 C-34.99507813 55.17396484 -35.74015625 55.16042969 -36.5078125 55.14648438 C-38.33885416 55.11127204 -40.16952169 55.05746851 -42 55 C-42 59.62 -42 64.24 -42 69 C-39.958125 68.95875 -37.91625 68.9175 -35.8125 68.875 C-31.33854978 68.78461717 -28.02157045 68.95707078 -24 71 C-21.59653621 73.40346379 -21.67916253 74.13900195 -21.625 77.4375 C-21.59664063 78.21996094 -21.56828125 79.00242187 -21.5390625 79.80859375 C-22 82 -22 82 -23.5078125 83.7734375 C-27.04860934 85.51608673 -30.39996608 85.32014251 -34.25 85.1875 C-34.99507813 85.17396484 -35.74015625 85.16042969 -36.5078125 85.14648438 C-38.33885416 85.11127204 -40.16952169 85.05746851 -42 85 C-42 89.62 -42 94.24 -42 99 C-39.958125 98.95875 -37.91625 98.9175 -35.8125 98.875 C-31.33854978 98.78461717 -28.02157045 98.95707078 -24 101 C-21.59653621 103.40346379 -21.67916253 104.13900195 -21.625 107.4375 C-21.59664063 108.21996094 -21.56828125 109.00242187 -21.5390625 109.80859375 C-22 112 -22 112 -23.5078125 113.7734375 C-27.04860934 115.51608673 -30.39996608 115.32014251 -34.25 115.1875 C-34.99507813 115.17396484 -35.74015625 115.16042969 -36.5078125 115.14648438 C-38.33885416 115.11127204 -40.16952169 115.05746851 -42 115 C-42 119.62 -42 124.24 -42 129 C-38.9371875 128.938125 -38.9371875 128.938125 -35.8125 128.875 C-31.33854978 128.78461717 -28.02157045 128.95707078 -24 131 C-21.59653621 133.40346379 -21.67916253 134.13900195 -21.625 137.4375 C-21.59664063 138.21996094 -21.56828125 139.00242188 -21.5390625 139.80859375 C-22 142 -22 142 -23.5078125 143.7734375 C-27.04860934 145.51608673 -30.39996608 145.32014251 -34.25 145.1875 C-34.99507813 145.17396484 -35.74015625 145.16042969 -36.5078125 145.14648438 C-38.33885416 145.11127204 -40.16952169 145.05746851 -42 145 C-42 149.62 -42 154.24 -42 159 C-38.9371875 158.938125 -38.9371875 158.938125 -35.8125 158.875 C-31.33854978 158.78461717 -28.02157045 158.95707078 -24 161 C-21.59653621 163.40346379 -21.67916253 164.13900195 -21.625 167.4375 C-21.59664063 168.21996094 -21.56828125 169.00242188 -21.5390625 169.80859375 C-22 172 -22 172 -23.5078125 173.7734375 C-27.04860934 175.51608673 -30.39996608 175.32014251 -34.25 175.1875 C-34.99507813 175.17396484 -35.74015625 175.16042969 -36.5078125 175.14648438 C-38.33885416 175.11127204 -40.16952169 175.05746851 -42 175 C-42 179.62 -42 184.24 -42 189 C-40.42065674 188.98952637 -38.84131348 188.97905273 -37.21411133 188.96826172 C-31.35296903 188.93205376 -25.49183662 188.90909648 -19.63061523 188.89013672 C-17.09413999 188.88008099 -14.55767632 188.86643465 -12.02124023 188.84912109 C-8.37480814 188.82485437 -4.72852937 188.8135125 -1.08203125 188.8046875 C0.05147263 188.79436493 1.1849765 188.78404236 2.35282898 188.77340698 C3.41355118 188.77325592 4.47427338 188.77310486 5.56713867 188.77294922 C6.96279305 188.76628738 6.96279305 188.76628738 8.38664246 188.75949097 C12.39851674 189.12870643 15.14544815 190.14544815 18 193 C18.1877701 195.49962246 18.25194071 197.88744197 18.22705078 200.38720703 C18.22734283 201.14827759 18.22763489 201.90934814 18.22793579 202.69348145 C18.22653981 205.21504016 18.21096618 207.73630525 18.1953125 210.2578125 C18.19158332 212.00373167 18.1887359 213.74965294 18.18673706 215.49557495 C18.17909311 220.0954972 18.15943813 224.69529357 18.1373291 229.29516602 C18.11688704 233.9871246 18.10773886 238.67910349 18.09765625 243.37109375 C18.07619292 252.58078454 18.04204783 261.79038181 18 271 C18.76046631 271.13035645 19.52093262 271.26071289 20.30444336 271.39501953 C23.84664586 272.19001797 26.56342737 273.91456543 29.5625 275.875 C30.17311279 276.27283691 30.78372559 276.67067383 31.4128418 277.08056641 C52.4247671 291.1683857 65.88713051 311.63039081 72 336 C76.5891404 360.22634409 72.5043112 385.4673026 59.1875 406.25 C55.21706437 411.92312719 50.85303943 417.06553374 46 422 C44.87851562 423.14082031 44.87851562 423.14082031 43.734375 424.3046875 C33.62222131 433.98154981 21.33140218 440.83903604 8 445 C7.01902344 445.31839844 6.03804688 445.63679688 5.02734375 445.96484375 C-17.7095594 452.0787322 -43.2502872 448.7087314 -64 438 C-72.15815741 433.2652657 -79.28407718 427.60509901 -86 421 C-86.76054688 420.25234375 -87.52109375 419.5046875 -88.3046875 418.734375 C-97.98154981 408.62222131 -104.83903604 396.33140218 -109 383 C-109.31839844 382.01902344 -109.63679688 381.03804688 -109.96484375 380.02734375 C-116.53733738 355.58493656 -112.07674264 330.05362467 -100.25292969 308.16699219 C-97.05687194 302.63928201 -93.21904015 297.78918071 -89 293 C-87.92298828 291.77410156 -87.92298828 291.77410156 -86.82421875 290.5234375 C-79.10110783 282.30616044 -69.34950683 275.49129542 -59 271 C-58.34 271 -57.68 271 -57 271 C-57.00368717 269.74232158 -57.00737434 268.48464315 -57.01117325 267.18885326 C-57.09787872 237.30754972 -57.16379907 207.42627872 -57.20426132 177.54488013 C-57.20926391 173.86382286 -57.21444122 170.18276586 -57.21972656 166.50170898 C-57.2207758 165.76890317 -57.22182505 165.03609735 -57.22290608 164.28108529 C-57.24029254 152.42886563 -57.27182048 140.57672389 -57.30861118 128.72455039 C-57.34606967 116.55539859 -57.36824621 104.38628749 -57.37635398 92.21708041 C-57.38183161 84.71315847 -57.39910723 77.2094568 -57.43166587 69.70560268 C-57.45538824 63.94334804 -57.45780748 58.1812333 -57.45243073 52.41893959 C-57.45352865 50.06114982 -57.46145157 47.7033515 -57.4768219 45.34561157 C-57.49682966 42.11740921 -57.49189935 38.89013652 -57.48101807 35.66191101 C-57.49266943 34.73677899 -57.5043208 33.81164696 -57.51632524 32.85848063 C-57.41924633 22.14621321 -53.83961719 13.87971135 -46.43359375 6.23046875 C-34.19076182 -4.99048956 -14.93112713 -8.70592366 0 0 Z M-42 205 C-42 209.62 -42 214.24 -42 219 C-39.958125 219.12375 -37.91625 219.2475 -35.8125 219.375 C-26.03225806 219.96774194 -26.03225806 219.96774194 -23 223 C-22.796875 224.99609375 -22.796875 224.99609375 -22.75 227.4375 C-22.72421875 228.24058594 -22.6984375 229.04367187 -22.671875 229.87109375 C-22.78015625 230.57363281 -22.8884375 231.27617187 -23 232 C-26.72066472 234.48044315 -29.86540474 234.44381173 -34.1875 234.625 C-34.93708984 234.66367187 -35.68667969 234.70234375 -36.45898438 234.7421875 C-38.30559199 234.83628216 -40.1527619 234.91922319 -42 235 C-42.00586624 235.55710159 -42.01173248 236.11420319 -42.01777649 236.68818665 C-42.08164414 242.47955461 -42.16604596 248.27036344 -42.26245117 254.0612793 C-42.29573322 256.22331375 -42.32375485 258.38543577 -42.34643555 260.54760742 C-42.37992108 263.65321218 -42.432234 266.75801198 -42.48828125 269.86328125 C-42.49786613 271.31653557 -42.49786613 271.31653557 -42.50764465 272.79914856 C-42.52743881 273.6998558 -42.54723297 274.60056305 -42.56762695 275.52856445 C-42.57873001 276.32132278 -42.58983307 277.11408112 -42.60127258 277.93086243 C-43.10489823 280.54435402 -43.92927123 281.3677164 -46 283 C-48.50685424 284.2833045 -51.01186238 285.49939882 -53.5625 286.6875 C-60.47397079 290.02795365 -66.30251743 293.80211011 -72 299 C-72.6084375 299.51691406 -73.216875 300.03382813 -73.84375 300.56640625 C-82.87094926 308.75243467 -89.0701521 320.62655786 -93 332 C-93.47759766 333.27230469 -93.47759766 333.27230469 -93.96484375 334.5703125 C-100.1060096 353.98432067 -96.17803421 374.64452504 -87.20727539 392.30249023 C-84.11033864 398.10293253 -80.43558232 403.13809382 -76 408 C-75.48308594 408.6084375 -74.96617188 409.216875 -74.43359375 409.84375 C-61.60635396 423.98907708 -41.24464328 431.94490343 -22.546875 432.99609375 C-1.42609943 433.01935452 17.06352374 425.90670132 33 412 C33.61488281 411.48050781 34.22976562 410.96101562 34.86328125 410.42578125 C48.11866951 398.32833495 56.47186892 379.28117444 57.3203125 361.5859375 C57.95975981 339.37850379 52.18202458 319.64123758 37 303 C36.48308594 302.3915625 35.96617187 301.783125 35.43359375 301.15625 C27.91579141 292.86594165 16.29792509 286.23406424 6 282 C5.34 282 4.68 282 4 282 C3.67 256.59 3.34 231.18 3 205 C-11.85 205 -26.7 205 -42 205 Z " fill="#ffffff" transform="translate(142,34)"/>
<path d="M0 0 C3.35731695 2.54528297 4.68959644 4.13519556 6.046875 8.20703125 C5.859375 11.64453125 5.859375 11.64453125 4.421875 14.58203125 C1.5529773 16.89114403 -0.32554307 17.35648025 -4 17.15234375 C-6.47920366 16.56421149 -8.04804822 15.58626722 -10.140625 14.14453125 C-14.44369368 11.18300751 -16.95252536 10.89142001 -22.140625 11.64453125 C-26.00498975 13.68608244 -28.99132557 15.79841647 -31.140625 19.64453125 C-32.54792164 24.5159427 -32.09182573 27.97861647 -30.140625 32.64453125 C-26.2613561 36.99688172 -23.12639775 38.43398122 -17.3125 38.78515625 C-13.02471649 38.50752998 -10.06171357 36.28929325 -6.640625 33.89453125 C-3.34322888 32.24583319 -1.62500622 32.5840674 1.859375 33.64453125 C4.61546178 35.3552058 4.89858172 36.76445768 5.921875 39.89453125 C5.8463555 44.42570144 4.87277578 45.88848371 1.8125 49.0703125 C-5.39344383 54.87830323 -14.14184916 56.38451869 -23.140625 55.64453125 C-32.74304002 53.55504574 -39.3143821 48.41777178 -45.140625 40.64453125 C-49.33036911 33.38230813 -50.20787221 24.54755025 -48.078125 16.45703125 C-44.79920806 7.29664896 -39.79259541 1.15395046 -31.140625 -3.35546875 C-20.58024441 -7.73902296 -9.4590512 -5.98958169 0 0 Z " fill="#ffffff" transform="translate(253.140625,208.35546875)"/>
<path d="M0 0 C1.77697266 -0.0309375 1.77697266 -0.0309375 3.58984375 -0.0625 C4.73324219 -0.06765625 5.87664062 -0.0728125 7.0546875 -0.078125 C8.62065674 -0.09214355 8.62065674 -0.09214355 10.21826172 -0.10644531 C13.58585228 0.30651305 15.41417348 1.23765781 18.125 3.25 C20.125 6.25 20.125 6.25 19.9375 9.75 C19.12184652 13.26358424 18.8865338 14.17231174 16.125 16.25 C14.0402832 16.59057617 14.0402832 16.59057617 11.67578125 16.54296875 C10.82822266 16.53330078 9.98066406 16.52363281 9.10742188 16.51367188 C8.22634766 16.48853516 7.34527344 16.46339844 6.4375 16.4375 C5.54482422 16.42396484 4.65214844 16.41042969 3.73242188 16.39648438 C1.52933834 16.36114079 -0.67252582 16.31180493 -2.875 16.25 C-2.875 18.56 -2.875 20.87 -2.875 23.25 C-1.64523437 23.19779297 -1.64523437 23.19779297 -0.390625 23.14453125 C0.68703125 23.11746094 1.7646875 23.09039062 2.875 23.0625 C4.47601563 23.01029297 4.47601563 23.01029297 6.109375 22.95703125 C9.47718639 23.284215 10.77461147 23.85557609 13.125 26.25 C14.2198787 30.19156332 14.51915792 32.34343679 12.875 36.125 C11.125 38.25 11.125 38.25 8.125 39.25 C6.23029184 39.3185495 4.3333166 39.33480372 2.4375 39.3125 C1.44363281 39.30347656 0.44976562 39.29445312 -0.57421875 39.28515625 C-1.71310547 39.26775391 -1.71310547 39.26775391 -2.875 39.25 C-2.82279297 40.89548828 -2.82279297 40.89548828 -2.76953125 42.57421875 C-2.74138135 44.02863045 -2.71408248 45.4830588 -2.6875 46.9375 C-2.66236328 47.65873047 -2.63722656 48.37996094 -2.61132812 49.12304688 C-2.54820725 53.73087064 -3.07665268 56.56351222 -5.875 60.25 C-7.7253199 62.1003199 -10.29972082 61.54140132 -12.76953125 61.67578125 C-15.81579405 61.05974666 -16.91661643 59.61699164 -18.875 57.25 C-19.37620544 54.82177734 -19.37620544 54.82177734 -19.37670898 52.0859375 C-19.38608994 51.05807129 -19.39547089 50.03020508 -19.40513611 48.97119141 C-19.39390213 47.86694824 -19.38266815 46.76270508 -19.37109375 45.625 C-19.37254898 44.48595215 -19.37400421 43.3469043 -19.37550354 42.17333984 C-19.37384409 39.76592449 -19.36227785 37.35849859 -19.34155273 34.95117188 C-19.31260883 31.26386503 -19.32094175 27.57799646 -19.33398438 23.890625 C-19.32774672 21.55207634 -19.31935558 19.21353222 -19.30859375 16.875 C-19.31152939 15.77075684 -19.31446503 14.66651367 -19.31748962 13.52880859 C-19.30480545 12.50094238 -19.29212128 11.47307617 -19.27905273 10.4140625 C-19.27364975 9.51123535 -19.26824677 8.6084082 -19.26268005 7.67822266 C-18.79472573 4.74720449 -17.91386839 3.38392712 -15.875 1.25 C-10.75071138 -0.45809621 -5.36427073 0.02319685 0 0 Z " fill="#ffffff" transform="translate(272.875,82.75)"/>
<path d="M0 0 C2.39324802 1.86141513 3.8956617 3.86585076 5.75 6.25 C8.47992555 8.37327543 10.60796248 8.62675274 14.0390625 8.4609375 C17.9858747 7.53320077 20.04277912 4.32187646 22.3125 1.1875 C24.75776745 -0.53324376 27.14178654 -0.47120425 30.05859375 -0.34765625 C32 0 32 0 34.5 1.625 C36.5210074 4.82492838 36.64822853 6.25467961 36 10 C33.17335538 16.79481881 28.35550327 20.56041115 22 24 C14.8042538 26.39858207 6.30525019 26.10201515 -0.5625 22.875 C-5.72733198 19.88126324 -10.01444262 15.77616693 -12 10 C-12.44522837 6.438173 -12.43102443 4.68245535 -10.5 1.625 C-7.00624813 -0.64593871 -4.05927794 -0.83869379 0 0 Z " fill="#ffffff" transform="translate(378,386)"/>
<path d="M0 0 C2.39324802 1.86141513 3.8956617 3.86585076 5.75 6.25 C8.47992555 8.37327543 10.60796248 8.62675274 14.0390625 8.4609375 C17.9858747 7.53320077 20.04277912 4.32187646 22.3125 1.1875 C24.75776745 -0.53324376 27.14178654 -0.47120425 30.05859375 -0.34765625 C32 0 32 0 34.5 1.625 C36.5210074 4.82492838 36.64822853 6.25467961 36 10 C33.17335538 16.79481881 28.35550327 20.56041115 22 24 C14.8042538 26.39858207 6.30525019 26.10201515 -0.5625 22.875 C-5.72733198 19.88126324 -10.01444262 15.77616693 -12 10 C-12.44522837 6.438173 -12.43102443 4.68245535 -10.5 1.625 C-7.00624813 -0.64593871 -4.05927794 -0.83869379 0 0 Z " fill="#ffffff" transform="translate(111,386)"/>
<path d="M0 0 C0.7734375 -0.00773437 1.546875 -0.01546875 2.34375 -0.0234375 C5.05140157 0.47688942 5.79963544 1.23864453 7.5 3.375 C7.88818359 5.41210938 7.88818359 5.41210938 7.8984375 7.71875 C7.90230469 8.55277344 7.90617187 9.38679688 7.91015625 10.24609375 C7.89855469 11.11363281 7.88695312 11.98117187 7.875 12.875 C7.88660156 13.74253906 7.89820313 14.61007812 7.91015625 15.50390625 C7.90628906 16.33792969 7.90242188 17.17195313 7.8984375 18.03125 C7.89505371 18.79244141 7.89166992 19.55363281 7.88818359 20.33789062 C7.40002786 22.89963369 6.53502617 23.79055591 4.5 25.375 C2.34375 25.7734375 2.34375 25.7734375 0 25.75 C-0.7734375 25.75773437 -1.546875 25.76546875 -2.34375 25.7734375 C-5.05140157 25.27311058 -5.79963544 24.51135547 -7.5 22.375 C-7.88818359 20.33789062 -7.88818359 20.33789062 -7.8984375 18.03125 C-7.90230469 17.19722656 -7.90617187 16.36320312 -7.91015625 15.50390625 C-7.89275391 14.20259766 -7.89275391 14.20259766 -7.875 12.875 C-7.88660156 12.00746094 -7.89820313 11.13992188 -7.91015625 10.24609375 C-7.90435547 8.99505859 -7.90435547 8.99505859 -7.8984375 7.71875 C-7.89505371 6.95755859 -7.89166992 6.19636719 -7.88818359 5.41210938 C-7.03612121 0.94065745 -4.19353091 -0.04193531 0 0 Z " fill="#ffffff" transform="translate(433.5,367.625)"/>
<path d="M0 0 C0.7734375 -0.00773437 1.546875 -0.01546875 2.34375 -0.0234375 C5.05140157 0.47688942 5.79963544 1.23864453 7.5 3.375 C7.88818359 5.41210938 7.88818359 5.41210938 7.8984375 7.71875 C7.90230469 8.55277344 7.90617187 9.38679688 7.91015625 10.24609375 C7.89855469 11.11363281 7.88695312 11.98117187 7.875 12.875 C7.88660156 13.74253906 7.89820313 14.61007812 7.91015625 15.50390625 C7.90628906 16.33792969 7.90242188 17.17195313 7.8984375 18.03125 C7.89505371 18.79244141 7.89166992 19.55363281 7.88818359 20.33789062 C7.40002786 22.89963369 6.53502617 23.79055591 4.5 25.375 C2.34375 25.7734375 2.34375 25.7734375 0 25.75 C-0.7734375 25.75773437 -1.546875 25.76546875 -2.34375 25.7734375 C-5.05140157 25.27311058 -5.79963544 24.51135547 -7.5 22.375 C-7.88818359 20.33789062 -7.88818359 20.33789062 -7.8984375 18.03125 C-7.90230469 17.19722656 -7.90617187 16.36320312 -7.91015625 15.50390625 C-7.89275391 14.20259766 -7.89275391 14.20259766 -7.875 12.875 C-7.88660156 12.00746094 -7.89820313 11.13992188 -7.91015625 10.24609375 C-7.90435547 8.99505859 -7.90435547 8.99505859 -7.8984375 7.71875 C-7.89505371 6.95755859 -7.89166992 6.19636719 -7.88818359 5.41210938 C-7.03612121 0.94065745 -4.19353091 -0.04193531 0 0 Z " fill="#ffffff" transform="translate(345.5,367.625)"/>
<path d="M0 0 C0.7734375 -0.00773437 1.546875 -0.01546875 2.34375 -0.0234375 C5.05140157 0.47688942 5.79963544 1.23864453 7.5 3.375 C7.88818359 5.41210938 7.88818359 5.41210938 7.8984375 7.71875 C7.90230469 8.55277344 7.90617188 9.38679688 7.91015625 10.24609375 C7.89855469 11.11363281 7.88695312 11.98117187 7.875 12.875 C7.88660156 13.74253906 7.89820313 14.61007812 7.91015625 15.50390625 C7.90628906 16.33792969 7.90242187 17.17195313 7.8984375 18.03125 C7.89505371 18.79244141 7.89166992 19.55363281 7.88818359 20.33789062 C7.40002786 22.89963369 6.53502617 23.79055591 4.5 25.375 C2.34375 25.7734375 2.34375 25.7734375 0 25.75 C-0.7734375 25.75773437 -1.546875 25.76546875 -2.34375 25.7734375 C-5.05140157 25.27311058 -5.79963544 24.51135547 -7.5 22.375 C-7.88818359 20.33789062 -7.88818359 20.33789062 -7.8984375 18.03125 C-7.90230469 17.19722656 -7.90617188 16.36320312 -7.91015625 15.50390625 C-7.89275391 14.20259766 -7.89275391 14.20259766 -7.875 12.875 C-7.88660156 12.00746094 -7.89820313 11.13992188 -7.91015625 10.24609375 C-7.90435547 8.99505859 -7.90435547 8.99505859 -7.8984375 7.71875 C-7.89505371 6.95755859 -7.89166992 6.19636719 -7.88818359 5.41210938 C-7.03612121 0.94065745 -4.19353091 -0.04193531 0 0 Z " fill="#ffffff" transform="translate(166.5,367.625)"/>
<path d="M0 0 C0.7734375 -0.00773437 1.546875 -0.01546875 2.34375 -0.0234375 C5.05140157 0.47688942 5.79963544 1.23864453 7.5 3.375 C7.88818359 5.41210938 7.88818359 5.41210938 7.8984375 7.71875 C7.90230469 8.55277344 7.90617187 9.38679688 7.91015625 10.24609375 C7.89855469 11.11363281 7.88695313 11.98117187 7.875 12.875 C7.88660156 13.74253906 7.89820312 14.61007812 7.91015625 15.50390625 C7.90628906 16.33792969 7.90242188 17.17195313 7.8984375 18.03125 C7.89505371 18.79244141 7.89166992 19.55363281 7.88818359 20.33789062 C7.40002786 22.89963369 6.53502617 23.79055591 4.5 25.375 C2.34375 25.7734375 2.34375 25.7734375 0 25.75 C-0.7734375 25.75773437 -1.546875 25.76546875 -2.34375 25.7734375 C-5.05140157 25.27311058 -5.79963544 24.51135547 -7.5 22.375 C-7.88818359 20.33789062 -7.88818359 20.33789062 -7.8984375 18.03125 C-7.90230469 17.19722656 -7.90617187 16.36320312 -7.91015625 15.50390625 C-7.89275391 14.20259766 -7.89275391 14.20259766 -7.875 12.875 C-7.88660156 12.00746094 -7.89820312 11.13992188 -7.91015625 10.24609375 C-7.90435547 8.99505859 -7.90435547 8.99505859 -7.8984375 7.71875 C-7.89505371 6.95755859 -7.89166992 6.19636719 -7.88818359 5.41210938 C-7.03612121 0.94065745 -4.19353091 -0.04193531 0 0 Z " fill="#ffffff" transform="translate(78.5,367.625)"/>
<path d="M0 0 C2.48896378 2.89040956 3.02797399 4.3006502 2.875 8.125 C1.53492334 12.52810903 1.53492334 12.52810903 -1 14 C-7.79245283 14.75471698 -7.79245283 14.75471698 -11.5 12.4375 C-13.56851618 9.0761612 -13.48505011 6.88040089 -13 3 C-11.66469222 0.46291522 -10.75894138 -0.63361451 -8.1875 -1.875 C-4.98734093 -2.05786623 -2.89642365 -1.35577277 0 0 Z " fill="#ffffff" transform="translate(267,191)"/>
<path d="M0 0 C2.48896378 2.89040956 3.02797399 4.3006502 2.875 8.125 C1.53492334 12.52810903 1.53492334 12.52810903 -1 14 C-7.79245283 14.75471698 -7.79245283 14.75471698 -11.5 12.4375 C-13.56851618 9.0761612 -13.48505011 6.88040089 -13 3 C-11.66469222 0.46291522 -10.75894138 -0.63361451 -8.1875 -1.875 C-4.98734093 -2.05786623 -2.89642365 -1.35577277 0 0 Z " fill="#ffffff" transform="translate(307,70)"/>
</svg>
