<?xml version="1.0" encoding="UTF-8"?>
<svg version="1.1" xmlns="http://www.w3.org/2000/svg" width="512" height="512">
<path d="M0 0 C14.35546434 11.70990834 26.06794902 27.89121936 28.30664062 46.72021484 C29.76601625 68.44058871 26.97909464 88.67535502 12.32739258 105.62890625 C-0.36900499 119.53564782 -16.30448592 129.586932 -35.48102832 130.99915016 C-39.87407072 131.14527178 -44.26636993 131.12561552 -48.66122437 131.1078949 C-50.3584766 131.11207415 -52.05572603 131.1175549 -53.75297034 131.12421471 C-58.38897606 131.13860924 -63.02480309 131.13444351 -67.66081834 131.1270479 C-72.67101072 131.12230393 -77.68116513 131.13483656 -82.69134521 131.14506531 C-92.49358409 131.16223154 -102.2957588 131.16309825 -112.0980088 131.1578524 C-120.0629718 131.1538073 -128.02791586 131.15525828 -135.99287796 131.16060066 C-137.6946878 131.1617233 -137.6946878 131.1617233 -139.43087763 131.16286861 C-141.73575484 131.1644001 -144.04063205 131.16593845 -146.34550925 131.16748358 C-167.94042544 131.18119942 -189.53530537 131.17577617 -211.13022073 131.16429836 C-230.89361178 131.15435533 -250.65690935 131.16732677 -270.42028598 131.19123255 C-290.71798734 131.21559975 -311.01564511 131.225238 -331.31336081 131.21857983 C-342.70741282 131.21508381 -354.10139284 131.21734554 -365.49543381 131.23483086 C-375.18903891 131.24952258 -384.88252126 131.25022743 -394.57612388 131.23275995 C-399.52272841 131.22422474 -404.46911333 131.222162 -409.41570663 131.2374115 C-413.9418206 131.25119244 -418.46752544 131.24658097 -422.99361534 131.22717226 C-424.63265148 131.22339178 -426.27171987 131.2263928 -427.91072743 131.23678391 C-430.1361374 131.24989198 -432.36012218 131.23842788 -434.5854702 131.22078609 C-435.82216969 131.22067876 -437.05886918 131.22057142 -438.33304441 131.22046083 C-443.48665535 130.45324906 -446.54487257 127.92914832 -450.06835938 124.22021484 C-452.46639513 119.05521476 -452.44717473 114.31998604 -451.69335938 108.72021484 C-449.38272409 103.74346193 -446.40781667 101.41205804 -441.69335938 98.72021484 C-438.40998876 98.21931016 -438.40998876 98.21931016 -434.77287865 98.21799278 C-433.7599277 98.20943595 -433.7599277 98.20943595 -432.72651309 98.20070624 C-430.4649633 98.18645493 -428.20450052 98.20064199 -425.94296265 98.21469116 C-424.30466056 98.21024765 -422.66636246 98.20404544 -421.02807295 98.19623625 C-416.52685826 98.17983674 -412.02597907 98.18828535 -407.5247643 98.20072746 C-402.66976464 98.2097793 -397.81482612 98.19576485 -392.95983887 98.1844635 C-384.54579303 98.16795375 -376.13184224 98.1658295 -367.71778488 98.17322922 C-355.53940066 98.18374339 -343.36113276 98.17035713 -331.18276401 98.15076466 C-311.4071613 98.11941465 -291.63158316 98.10441849 -271.85595703 98.10107422 C-270.67223309 98.10087023 -269.48850914 98.10066624 -268.26891477 98.10045607 C-267.08373952 98.10025271 -265.89856427 98.10004934 -264.67747462 98.09983981 C-247.88930878 98.09692219 -231.10115053 98.09012404 -214.31298828 98.07861328 C-213.13252522 98.07780799 -211.95206216 98.07700269 -210.73582749 98.07617299 C-191.04171484 98.06240995 -171.34761569 98.04061314 -151.65351546 98.01474345 C-139.50908229 97.99931037 -127.36469336 97.99208614 -115.22025056 97.99553837 C-106.89439776 97.99758124 -98.56856692 97.99290569 -90.24271981 97.98299502 C-85.44129063 97.97757134 -80.63991837 97.97547292 -75.83848953 97.9821682 C-71.43775789 97.98827397 -67.03712995 97.98516085 -62.63640685 97.97493131 C-61.04957367 97.97286837 -59.46273162 97.97414684 -57.8759052 97.97922091 C-41.90785341 98.02675052 -27.71441297 97.07606221 -15.51367188 85.73974609 C-7.30750282 76.63547699 -5.07366582 66.75421266 -5.38476562 54.73193359 C-5.97969418 44.25279779 -11.05158382 36.07512046 -18.53710938 28.97021484 C-28.33218197 20.94146681 -39.45449192 19.51113318 -51.69335938 20.72021484 C-62.14218285 22.99949251 -69.89980101 28.69784008 -76.15820312 37.25146484 C-80.22901833 43.79791576 -81.75889559 50.44518839 -82.69335938 58.03271484 C-83.60377105 65.21397938 -84.9460055 68.11022866 -90.19335938 73.09521484 C-95.35835946 75.4932506 -100.09358817 75.4740302 -105.69335938 74.72021484 C-110.66252514 72.41310217 -113.05939885 69.4668312 -115.69335938 64.72021484 C-116.25739417 61.88858841 -116.26512777 59.16242185 -116.19335938 56.28271484 C-116.17982422 55.4921167 -116.16628906 54.70151855 -116.15234375 53.88696289 C-115.4182182 32.62506493 -105.2603732 16.63227029 -90.29492188 2.44677734 C-65.67643724 -18.90014787 -25.83209079 -19.52304209 0 0 Z " fill="#ffffff" transform="translate(467.693359375,141.27978515625)"/>
<path d="M0 0 C1.14610483 -0.00623996 2.29220966 -0.01247993 3.47304493 -0.01890898 C7.31671646 -0.03487389 11.1597569 -0.02221995 15.00343323 -0.00964355 C17.75828358 -0.01286275 20.51310707 -0.02204067 23.26794434 -0.03088379 C29.97789922 -0.04867103 36.68767511 -0.04482669 43.397637 -0.03323323 C48.85647652 -0.02419319 54.31526594 -0.02297739 59.77411079 -0.02732849 C60.55161888 -0.02794142 61.32912697 -0.02855436 62.1301959 -0.02918586 C63.70989475 -0.03046482 65.28959357 -0.03176167 66.86929239 -0.03307623 C81.68592365 -0.04448438 96.50245597 -0.03136819 111.319071 -0.00987476 C124.00883003 0.00796475 136.69844253 0.00491862 149.38819885 -0.0135498 C164.13849058 -0.03500719 178.88869531 -0.04335238 193.63900048 -0.03110075 C195.21558224 -0.02982664 196.79216401 -0.02856916 198.3687458 -0.02732849 C199.14434429 -0.02671139 199.91994278 -0.02609429 200.71904425 -0.02545848 C206.16131411 -0.02201778 211.60352846 -0.02780688 217.04578972 -0.0372467 C223.6932761 -0.0485237 230.34057383 -0.0453093 236.98803889 -0.02412373 C240.37433738 -0.0136841 243.76006571 -0.01155818 247.14640045 -0.02272034 C270.61292349 -0.09290538 290.96734568 2.39967964 308.59693909 19.3079834 C323.57753311 34.27065193 330.8650055 51.11073897 331.11109924 72.32043457 C330.98691455 92.34636617 324.68154509 109.60793557 310.44703674 123.85949707 C294.66155583 138.93351969 277.42787672 145.06057077 255.6721344 144.92565918 C235.17452416 144.4171246 218.6653416 136.16005414 204.67359924 121.50793457 C192.64956375 108.82278372 186.570672 92.49042916 186.23609924 75.13293457 C186.21362122 74.37134033 186.19114319 73.60974609 186.16798401 72.82507324 C186.19046315 67.59434947 187.27198576 64.67725165 190.67359924 60.50793457 C194.49290096 56.87959794 197.5563893 56.19792999 202.67359924 56.00793457 C207.79080918 56.19792999 210.85429752 56.87959794 214.67359924 60.50793457 C218.54229856 65.37854657 219.40769022 69.28646762 220.11109924 75.25793457 C221.69075191 86.22037013 225.27695087 94.93958226 233.67359924 102.50793457 C243.88912775 109.91049146 254.2449507 111.73170732 266.67359924 110.50793457 C276.91096088 108.3998712 285.4960953 102.31158936 291.38844299 93.71105957 C297.26353021 83.63948148 298.38779869 72.6934905 296.01344299 61.35559082 C292.88195987 51.69001738 286.51130342 43.57570899 277.67359924 38.50793457 C267.72460102 33.96979503 258.27302074 33.35820564 247.50169373 33.37663269 C245.84395201 33.37345912 245.84395201 33.37345912 244.15272057 33.37022144 C240.46028857 33.36424378 236.76789096 33.36521998 233.07545471 33.36608887 C230.42394322 33.36305601 227.77243569 33.35960831 225.1209259 33.3555603 C219.41670108 33.34746754 213.71248069 33.34251061 208.00825119 33.33926964 C198.99141824 33.33376022 189.97462284 33.31685126 180.95780945 33.29792786 C177.87016875 33.29157213 174.78252795 33.2852636 171.69488716 33.27895069 C170.92339396 33.27736693 170.15190076 33.27578317 169.35702898 33.27415141 C160.58576472 33.25623431 151.81449784 33.23999673 143.04322815 33.22497559 C142.24186004 33.22359971 141.44049192 33.22222384 140.61483993 33.22080628 C127.61521905 33.19885421 114.61560793 33.18811351 101.61597179 33.18060484 C88.26115928 33.17253552 74.90643026 33.14925526 61.55166543 33.11265117 C53.31789608 33.09062858 45.08429839 33.08096072 36.85050108 33.08715151 C31.21115608 33.09032465 25.57195787 33.07900567 19.9326583 33.05625709 C16.67915738 33.04358457 13.42605029 33.03960056 10.17252731 33.04867363 C6.64519673 33.05751832 3.11879262 33.04193803 -0.40846252 33.02018738 C-1.94989557 33.03285118 -1.94989557 33.03285118 -3.52246869 33.04577082 C-9.45806797 32.97792299 -12.78496009 32.41986644 -17.32640076 28.50793457 C-20.95473739 24.68863285 -21.63640534 21.62514451 -21.82640076 16.50793457 C-21.63640534 11.39072463 -20.95473739 8.32723629 -17.32640076 4.50793457 C-11.87080752 -0.24119564 -7.04049692 -0.05873707 0 0 Z " fill="#ffffff" transform="translate(85.32640075683594,303.4920654296875)"/>
<path d="M0 0 C14.35546434 11.70990834 26.06794902 27.89121936 28.30664062 46.72021484 C29.76601625 68.44058871 26.97909464 88.67535502 12.32739258 105.62890625 C-0.31151452 119.4726768 -16.15028565 129.47943085 -35.22739792 131.00233269 C-39.18555082 131.1148018 -43.13801058 131.13796303 -47.09716797 131.12426758 C-48.60643007 131.12998352 -50.11568785 131.13695247 -51.62493896 131.14506531 C-55.6865486 131.16286534 -59.74794069 131.16185482 -63.80957747 131.15612292 C-67.20955868 131.1530155 -70.60949903 131.15913986 -74.0094744 131.16516167 C-82.02799858 131.17915855 -90.04641608 131.17768277 -98.06494141 131.16625977 C-106.32672795 131.15475015 -114.58819095 131.16891272 -122.84993494 131.19565624 C-129.96191225 131.2178125 -137.07378796 131.22445177 -144.18579733 131.21857983 C-148.42580729 131.21521287 -152.66560928 131.21760943 -156.90559006 131.23483086 C-160.88669729 131.25029963 -164.86732334 131.24634568 -168.84841156 131.22752571 C-170.30687748 131.22384132 -171.7653791 131.22694401 -173.2238121 131.2374115 C-175.2178868 131.25062936 -177.21208598 131.23666089 -179.20614624 131.22142029 C-180.32067862 131.221211 -181.43521099 131.22100172 -182.58351707 131.22078609 C-187.56063023 130.4196523 -190.66042904 127.80750993 -194.06835938 124.22021484 C-196.46639513 119.05521476 -196.44717473 114.31998604 -195.69335938 108.72021484 C-193.53808826 104.07809245 -190.49080777 100.64882861 -185.69335938 98.72021484 C-181.18727228 98.12102618 -176.70757281 98.17723361 -172.16748047 98.20605469 C-170.78706074 98.20058962 -169.40664709 98.19334571 -168.02624512 98.1844635 C-165.06003878 98.16915264 -162.0941782 98.16631362 -159.12794113 98.17322922 C-154.42773779 98.1840478 -149.727893 98.16659311 -145.02774048 98.14541626 C-137.58361656 98.11517152 -130.13959922 98.10346396 -122.69541895 98.09983981 C-109.39058362 98.09319873 -96.08582387 98.06394661 -82.78107893 98.01474345 C-78.11954966 97.998348 -73.4581754 97.99280893 -68.79662013 97.99633384 C-65.88102072 97.99677459 -62.96547853 97.98915133 -60.04989624 97.97965813 C-58.07701807 97.97574732 -56.10412783 97.9817028 -54.1312561 97.98808289 C-39.4036701 97.92216406 -26.64578647 96.08314812 -15.51367188 85.73974609 C-7.30750282 76.63547699 -5.07366582 66.75421266 -5.38476562 54.73193359 C-5.97969418 44.25279779 -11.05158382 36.07512046 -18.53710938 28.97021484 C-28.33218197 20.94146681 -39.45449192 19.51113318 -51.69335938 20.72021484 C-62.14218285 22.99949251 -69.89980101 28.69784008 -76.15820312 37.25146484 C-80.22901833 43.79791576 -81.75889559 50.44518839 -82.69335938 58.03271484 C-83.60377105 65.21397938 -84.9460055 68.11022866 -90.19335938 73.09521484 C-95.35835946 75.4932506 -100.09358817 75.4740302 -105.69335938 74.72021484 C-110.66252514 72.41310217 -113.05939885 69.4668312 -115.69335938 64.72021484 C-116.25739417 61.88858841 -116.26512777 59.16242185 -116.19335938 56.28271484 C-116.17982422 55.4921167 -116.16628906 54.70151855 -116.15234375 53.88696289 C-115.4182182 32.62506493 -105.2603732 16.63227029 -90.29492188 2.44677734 C-65.67643724 -18.90014787 -25.83209079 -19.52304209 0 0 Z " fill="#ffffff" transform="translate(307.693359375,77.27978515625)"/>
</svg>
